<?xml version="1.0" encoding="utf-8"?>
<!-- Generator: Adobe Illustrator 27.5.0, SVG Export Plug-In . SVG Version: 6.00 Build 0)  -->
<svg version="1.1" xmlns="http://www.w3.org/2000/svg" xmlns:xlink="http://www.w3.org/1999/xlink" x="0px" y="0px"
	 viewBox="0 0 500 500" style="enable-background:new 0 0 500 500;" xml:space="preserve">
<g id="Floor">
	<path id="Floor_00000079461129701610602290000006308895280224059572_" style="fill:#F5F5F5;" d="M78.992,247.908
		c-94.452,54.533-94.45,142.947,0.005,197.479c94.455,54.532,247.595,54.532,342.048,0c94.453-54.533,94.45-142.947-0.005-197.479
		C326.585,193.376,173.445,193.376,78.992,247.908z"/>
</g>
<g id="Shadows">
	<path id="Shadow_00000069368536177989537710000014883931357908344464_" style="fill:#E0E0E0;" d="M55.656,367.135l119.869,69.206
		c2.924,1.689,7.666,1.689,10.591,0l193.376-111.646c2.925-1.688,2.925-4.426,0-6.115l-119.869-69.206
		c-2.925-1.688-7.667-1.688-10.591,0L55.656,361.02C52.732,362.708,52.732,365.446,55.656,367.135z"/>
	<polygon id="Shadow_00000119826706111449120290000000394269519074279602_" style="fill:#E0E0E0;" points="407.281,278.512 
		373.167,298.207 273.797,240.83 307.911,221.135 	"/>
	
		<ellipse id="Shadow_00000127727135693870797120000015367067425563049881_" style="fill:#E0E0E0;" cx="431.35" cy="361.141" rx="51.669" ry="29.831"/>
	
		<ellipse id="Shadow_00000183217983935296436220000011623685496524366759_" style="fill:#E0E0E0;" cx="353.654" cy="414.739" rx="57.124" ry="32.981"/>
</g>
<g id="Quran">
	<g id="Book_61_">
		<path id="XMLID_5699_" d="M388.691,125.178l0.007,3.274c0,0-1.263-1.152-1.335-1.979
			C387.29,125.648,388.691,125.178,388.691,125.178z"/>
		<path id="XMLID_5696_" style="fill:#BA68C8;" d="M386.17,124.385c0,0-1.044,3.257,2.527,4.379
			c3.573,1.123,5.817-0.009,6.352,1.001c0.535,1.01-16.952,11.086-16.952,11.086l3.321-14.472L386.17,124.385z"/>
		<path id="XMLID_5693_" style="opacity:0.3;" d="M386.17,124.385c0,0-1.044,3.257,2.527,4.379c3.573,1.123,5.817-0.009,6.352,1.001
			c0.535,1.01-16.952,11.086-16.952,11.086l3.321-14.472L386.17,124.385z"/>
		<path id="XMLID_5690_" style="fill:#BA68C8;" d="M384.66,277.962l-75.35-43.266l0.1-149.116c0-2.087,1.143-3.118,2.553-2.3
			l2.552,1.48l70.145,40.481l-0.065,0.613L384.66,277.962z"/>
		<path id="XMLID_5689_" style="opacity:0.2;" d="M384.66,277.962l-75.35-43.266l0.1-149.116c0-2.087,1.143-3.118,2.553-2.3
			l2.552,1.48l70.145,40.481l-0.065,0.613L384.66,277.962z"/>
		<path id="XMLID_5688_" style="fill:#455A64;" d="M369.383,144.867l-3.685-4.143l18.835-10.874
			c2.842,2.142,5.023,3.288,7.568,2.216L369.383,144.867z"/>
		<path id="XMLID_5511_" style="fill:#F5F5F5;" d="M383.58,127.625l-69.472-40.11c-1.206-0.695-3.16-0.695-4.365,0l-18.567,10.72
			l70.45,40.321c0,0,3.045-0.792,5.118,0.883c2.072,1.675,1.957-0.448,1.957-0.448l15.833-9.141
			C383.239,128.116,383.58,127.625,383.58,127.625z"/>
		<path id="XMLID_00000053534753204351552100000015864673769271641530_" style="fill:#BA68C8;" d="M368.025,144.004
			c-0.719-0.415-1.024-0.893-0.685-1.089l0.588-0.34c0.655-0.378,0.049-1.353-1.372-2.176c-1.415-0.813-3.096-1.184-3.751-0.806
			l-0.591,0.342c-0.339,0.195-1.575-0.208-2.773-0.898l0.428,145.544c0.693,0.4,1.756,1.007,1.756,1.007
			c0.394,0.111,0.883-0.013,1.026-0.096l0.589-0.34c0.654-0.379,2.33-0.022,3.745,0.791c1.421,0.824,2.028,1.798,1.373,2.176
			l-0.589,0.339c-0.338,0.195-0.033,0.674,0.686,1.087L368.025,144.004z"/>
		<path id="XMLID_5509_" style="opacity:0.4;" d="M368.025,144.004c-0.719-0.415-1.024-0.893-0.685-1.089l0.588-0.34
			c0.655-0.378,0.049-1.353-1.372-2.176c-1.415-0.813-3.096-1.184-3.751-0.806l-0.591,0.342c-0.339,0.195-1.575-0.208-2.773-0.898
			l0.428,145.544c0.693,0.4,1.756,1.007,1.756,1.007c0.394,0.111,0.883-0.013,1.026-0.096l0.589-0.34
			c0.654-0.379,2.33-0.022,3.745,0.791c1.421,0.824,2.028,1.798,1.373,2.176l-0.589,0.339c-0.338,0.195-0.033,0.674,0.686,1.087
			L368.025,144.004z"/>
		<path id="XMLID_00000090997912295170259550000000018155729786418103_" style="fill:#BA68C8;" d="M361.625,285.383v0.206
			l-1.748-1.008l-75.023-43.315l0.011-141.514c-0.001-2.087,1.142-3.117,2.552-2.299l2.553,1.479l71.655,39.625V285.383z"/>
		<path id="XMLID_5506_" style="opacity:0.2;" d="M361.625,285.383v0.206l-1.748-1.008l-75.023-43.315l0.011-141.514
			c-0.001-2.087,1.142-3.117,2.552-2.299l2.553,1.479l71.655,41.018V285.383z"/>
		<path style="fill:#BA68C8;" d="M329.463,213.554c-8.905-5.141-16.124-20.423-16.124-34.133c0-11.114,4.746-17.784,11.291-17.166
			c-0.526-0.376-1.066-0.729-1.613-1.044c-10.271-5.93-18.596,2.091-18.596,17.905c0,15.814,8.325,33.448,18.596,39.378
			c6.539,3.775,12.291,1.904,15.604-4.044C336.022,215.72,332.862,215.517,329.463,213.554z M325.724,189.348l0.987,7.883
			l3.17-3.824l4.823,3.6l-2.513-7.84l1.994-5.659l-4.724-1.022l-3.59-7.097l-0.406,7.209l-4.213,1.272L325.724,189.348z
			 M290.044,106.051V235.58l65.961,38.082V144.134L290.044,106.051z M353.259,268.567l-60.468-34.911V111.146l60.468,34.911V268.567
			z M350.752,147.7l-55.463-32.021V232.01l55.463,32.021V147.7z M348.293,238.259c0,7.389-1.28,9.564-6.692,6.737
			c0,8.62-9.458,4.432-18.577-0.832c-9.118-5.264-18.583-12.002-18.583-20.622c-5.406-3.419-6.685-7.072-6.685-14.461v-67.617
			c0-7.399,1.28-9.564,6.685-6.751c0-8.62,9.465-4.418,18.583,0.846c9.118,5.264,18.577,11.987,18.577,20.607
			c5.412,3.433,6.692,7.076,6.692,14.475V238.259z"/>
		<path style="opacity:0.3;fill:#FFFFFF;" d="M329.463,213.554c-8.905-5.141-16.124-20.423-16.124-34.133
			c0-11.114,4.746-17.784,11.291-17.166c-0.526-0.376-1.066-0.729-1.613-1.044c-10.271-5.93-18.596,2.091-18.596,17.905
			c0,15.814,8.325,33.448,18.596,39.378c6.539,3.775,12.291,1.904,15.604-4.044C336.022,215.72,332.862,215.517,329.463,213.554z
			 M325.724,189.348l0.987,7.883l3.17-3.824l4.823,3.6l-2.513-7.84l1.994-5.659l-4.724-1.022l-3.59-7.097l-0.406,7.209l-4.213,1.272
			L325.724,189.348z M290.044,106.051V235.58l65.961,38.082V144.134L290.044,106.051z M353.259,268.567l-60.468-34.911V111.146
			l60.468,34.911V268.567z M350.752,147.7l-55.463-32.021V232.01l55.463,32.021V147.7z M348.293,238.259
			c0,7.389-1.28,9.564-6.692,6.737c0,8.62-9.458,4.432-18.577-0.832c-9.118-5.264-18.583-12.002-18.583-20.622
			c-5.406-3.419-6.685-7.072-6.685-14.461v-67.617c0-7.399,1.28-9.564,6.685-6.751c0-8.62,9.465-4.418,18.583,0.846
			c9.118,5.264,18.577,11.987,18.577,20.607c5.412,3.433,6.692,7.076,6.692,14.475V238.259z"/>
		<path id="XMLID_5489_" style="fill:#BA68C8;" d="M367.205,288.811V143.122l4.656,1.879v145.268
			c-1.246,0.156-2.027,0.023-2.573-0.255L367.205,288.811z"/>
		<path id="XMLID_5485_" style="opacity:0.2;" d="M367.205,288.811V143.122l4.656,1.879v145.268
			c-1.246,0.156-2.027,0.023-2.573-0.255L367.205,288.811z"/>
		<g id="XMLID_5482_">
			<path id="XMLID_5484_" style="fill:#BA68C8;" d="M396.93,275.282c-0.001,0.081-0.008,0.164-0.025,0.25
				c0.004,0.056-0.01,0.108-0.035,0.166c-0.032,0.12-0.082,0.236-0.148,0.348c-0.019,0.069-0.05,0.115-0.085,0.18
				c-0.107,0.192-0.243,0.388-0.401,0.566c-0.152,0.189-0.332,0.381-0.519,0.562c-0.217,0.2-0.44,0.389-0.688,0.592
				c-0.12,0.099-0.249,0.193-0.376,0.282c-0.119,0.083-0.224,0.159-0.354,0.249c-0.26,0.18-0.536,0.354-0.832,0.525l-16.159,9.329
				c-1.806,1.043-3.822,1.73-5.449,1.937L371.861,145l25.079-15.028l-0.01,145.268L396.93,275.282z"/>
		</g>
		<g id="XMLID_00000070119448827512809250000000428872141542872742_">
			<path id="XMLID_00000174588941499257207050000005551303628450708610_" style="fill:#BA68C8;" d="M396.93,275.282
				c-0.001,0.081-0.008,0.164-0.025,0.25c0.004,0.056-0.01,0.108-0.035,0.166c-0.032,0.12-0.082,0.236-0.148,0.348
				c-0.019,0.069-0.05,0.115-0.085,0.18c-0.107,0.192-0.243,0.388-0.401,0.566c-0.152,0.189-0.332,0.381-0.519,0.562
				c-0.217,0.2-0.44,0.389-0.688,0.592c-0.12,0.099-0.249,0.193-0.376,0.282c-0.119,0.083-0.224,0.159-0.354,0.249
				c-0.26,0.18-0.536,0.354-0.832,0.525l-16.159,9.329c-1.806,1.043-3.822,1.73-5.449,1.937L371.861,145l25.079-15.028
				l-0.01,145.268L396.93,275.282z"/>
		</g>
		<path style="opacity:0.3;fill:#FFFFFF;" d="M393.043,139.301l-17.29,9.982c0,4.036,1.333,5.106,1.333,5.106
			s-1.333,2.812-1.333,7.149v108.364c0,4.355,1.333,5.61,1.333,5.61s-1.333,2.472-1.333,6.645l17.29-9.982
			c0-4.036-1.333-5.106-1.333-5.106s1.333-2.812,1.333-7.149V151.556c0-4.355-1.333-5.61-1.333-5.61
			S393.043,143.474,393.043,139.301z M390.224,249.194c0,5.829-2.306,12.415-5.826,16.612c-1.76-0.062-3.213-1.08-4.233-2.811
			c-1.02-1.72-1.593-4.16-1.593-7.074v-13.31c1.493,1.016,2.986,1.324,4.473,0.907c-0.16,0.934-0.68,3.194-2.073,3.68
			c1.186,1.47,2.479,0.395,2.479,0.395s-0.433,2.569,0.947,3.805c0.846-1.741,1.013-3.191,1.013-4.053
			c0-0.534-0.067-0.844-0.067-0.844s1.293-0.418,2.479-3.258c-1.393,1.122-1.913-0.538-2.073-1.287
			c1.486-1.299,2.979-3.331,4.472-6.071V249.194z M378.573,172.264c0-5.829,2.306-12.415,5.826-16.612
			c1.76,0.062,3.213,1.08,4.233,2.811c1.02,1.72,1.593,4.16,1.593,7.075v13.31c-1.493-1.016-2.986-1.324-4.472-0.907
			c0.16-0.934,0.68-3.194,2.073-3.68c-1.186-1.47-2.479-0.395-2.479-0.395s0.433-2.569-0.947-3.805
			c-0.846,1.741-1.013,3.191-1.013,4.053c0,0.534,0.067,0.844,0.067,0.844s-1.293,0.418-2.48,3.258
			c1.393-1.122,1.913,0.538,2.073,1.287c-1.486,1.299-2.979,3.331-4.473,6.071V172.264z"/>
		<path style="fill:#455A64;" d="M390.224,226.656c-3.883,7.953-7.766,10.195-11.65,6.726v-38.59
			c3.883-6.357,7.767-8.599,11.65-6.726V226.656z"/>
		<g id="XMLID_5453_">
			<g>
				<path id="XMLID_00000162323656514102661110000007579652954619623067_" style="fill:#BA68C8;" d="M377.313,143.057l-1.26-2.183
					c-2.335,1.348-4.663,1.775-5.38,1.694c0.094-0.694-0.04-1.431-0.444-2.13c-0.592-1.025-1.636-1.775-2.419-2.225
					c-1.023-0.588-2.376-1.117-3.67-1.243c-0.09-0.005-0.188-0.022-0.272-0.017c-0.805-0.059-1.587,0.073-2.244,0.423
					l-66.539-38.416l-2.262-1.298l-2.883-1.667c-0.591-0.342-1.14-0.361-1.565-0.115l-2.554,1.475
					c0.502-0.29,1.043-0.209,1.598,0.096l0.041,0.02l7.626,4.413l64.351,37.148c1.199,0.69,2.444,1.106,2.782,0.911l0.589-0.34
					c0.284-0.164,0.762-0.193,1.332-0.086c0.729,0.103,1.612,0.422,2.413,0.876c1.42,0.824,2.027,1.799,1.372,2.176l-0.588,0.34
					c-0.339,0.195-0.034,0.674,0.685,1.088l1.281,0.731C370.706,145.548,374.302,144.796,377.313,143.057z"/>
				<path id="XMLID_00000012444362646001424190000002433237457067431832_" style="opacity:0.3;fill:#FFFFFF;" d="M377.313,143.057
					l-1.26-2.183c-2.335,1.348-4.663,1.775-5.38,1.694c0.094-0.694-0.04-1.431-0.444-2.13c-0.592-1.025-1.636-1.775-2.419-2.225
					c-1.023-0.588-2.376-1.117-3.67-1.243c-0.09-0.005-0.188-0.022-0.272-0.017c-0.805-0.059-1.587,0.073-2.244,0.423
					l-66.539-38.416l-2.262-1.298l-2.883-1.667c-0.591-0.342-1.14-0.361-1.565-0.115l-2.554,1.475
					c0.502-0.29,1.043-0.209,1.598,0.096l0.041,0.02l7.626,4.413l64.351,37.148c1.199,0.69,2.444,1.106,2.782,0.911l0.589-0.34
					c0.284-0.164,0.762-0.193,1.332-0.086c0.729,0.103,1.612,0.422,2.413,0.876c1.42,0.824,2.027,1.799,1.372,2.176l-0.588,0.34
					c-0.339,0.195-0.034,0.674,0.685,1.088l1.281,0.731C370.706,145.548,374.302,144.796,377.313,143.057z"/>
				<path id="XMLID_00000157272903203490376600000013454515001021322409_" style="fill:#BA68C8;" d="M376.053,140.875l16.16-9.33
					c0.229-0.132,0.452-0.275,0.664-0.413l0.515-0.369c0.021-0.012,0.032-0.019,0.048-0.043c-1.848,0.806-4.355,0.041-6.005-0.926
					c-0.754-0.423-1.775-1.158-2.366-2.184c-0.441-0.764-0.566-1.609-0.408-2.369l-0.223-0.133c-0.152-0.087-0.298-0.163-0.45-0.25
					l-64.352-37.147c0,0-1.684-0.977-3.69-2.133c-0.344-0.193-0.702-0.408-1.064-0.607c-1.087-0.624-2.181-1.258-3.116-1.795
					c-0.487-0.213-0.958-0.248-1.394,0.005l0.699-0.404l1.854-1.07c0.361-0.208,0.817-0.224,1.303-0.011
					c0.012-0.006,0.018,0.005,0.035,0.01c0.368,0.209,0.749,0.441,1.151,0.659c0.24,0.138,0.48,0.276,0.72,0.414
					c0.421,0.252,0.847,0.486,1.239,0.711c0.28,0.158,0.537,0.3,0.766,0.445c0.199,0.118,0.385,0.214,0.543,0.312
					c0.585,0.331,0.953,0.541,0.953,0.541l51.103,29.521l16.32,9.419c1.169,0.664,1.849,1.362,1.575,1.593
					c-0.038,0.034-0.087,0.065-0.098,0.071l-0.573,0.33c-0.709,0.409-0.136,1.403,1.279,2.215c1.381,0.803,2.534,0.835,3.234,0.461
					l0.699-0.404c0.36-0.208,0.812-0.28,1.018-0.152c0.104,0.056,0.24,0.138,0.375,0.221c0.222,0.133,0.503,0.291,0.807,0.465
					c0.304,0.174,0.649,0.367,0.999,0.572c0.462,0.271,0.634,0.667,0.538,1.158c0.004,0.056-0.01,0.108-0.035,0.166
					c-0.033,0.121-0.082,0.236-0.148,0.347l-0.011,0.006c-0.019,0.068-0.038,0.109-0.074,0.173
					c-0.108,0.193-0.243,0.388-0.401,0.566c-0.152,0.19-0.333,0.381-0.52,0.562c-0.209,0.193-0.424,0.375-0.66,0.569
					c-0.123,0.115-0.27,0.214-0.415,0.313c-0.114,0.08-0.217,0.154-0.342,0.241c-0.26,0.178-0.538,0.354-0.833,0.524l-16.159,9.33
					L376.053,140.875z"/>
				<path id="XMLID_00000084532349626352249540000016940832261647177407_" style="opacity:0.3;fill:#FFFFFF;" d="M376.053,140.875
					l16.16-9.33c0.229-0.132,0.452-0.275,0.664-0.413l0.515-0.369c0.021-0.012,0.032-0.019,0.048-0.043
					c-1.848,0.806-4.355,0.041-6.005-0.926c-0.754-0.423-1.775-1.158-2.366-2.184c-0.441-0.764-0.566-1.609-0.408-2.369
					l-0.223-0.133c-0.152-0.087-0.298-0.163-0.45-0.25l-64.352-37.147c0,0-1.684-0.977-3.69-2.133
					c-0.344-0.193-0.702-0.408-1.064-0.607c-1.087-0.624-2.181-1.258-3.116-1.795c-0.487-0.213-0.958-0.248-1.394,0.005l0.699-0.404
					l1.854-1.07c0.361-0.208,0.817-0.224,1.303-0.011c0.012-0.006,0.018,0.005,0.035,0.01c0.368,0.209,0.749,0.441,1.151,0.659
					c0.24,0.138,0.48,0.276,0.72,0.414c0.421,0.252,0.847,0.486,1.239,0.711c0.28,0.158,0.537,0.3,0.766,0.445
					c0.199,0.118,0.385,0.214,0.543,0.312c0.585,0.331,0.953,0.541,0.953,0.541l51.103,29.521l16.32,9.419
					c1.169,0.664,1.849,1.362,1.575,1.593c-0.038,0.034-0.087,0.065-0.098,0.071l-0.573,0.33c-0.709,0.409-0.136,1.403,1.279,2.215
					c1.381,0.803,2.534,0.835,3.234,0.461l0.699-0.404c0.36-0.208,0.812-0.28,1.018-0.152c0.104,0.056,0.24,0.138,0.375,0.221
					c0.222,0.133,0.503,0.291,0.807,0.465c0.304,0.174,0.649,0.367,0.999,0.572c0.462,0.271,0.634,0.667,0.538,1.158
					c0.004,0.056-0.01,0.108-0.035,0.166c-0.033,0.121-0.082,0.236-0.148,0.347l-0.011,0.006c-0.019,0.068-0.038,0.109-0.074,0.173
					c-0.108,0.193-0.243,0.388-0.401,0.566c-0.152,0.19-0.333,0.381-0.52,0.562c-0.209,0.193-0.424,0.375-0.66,0.569
					c-0.123,0.115-0.27,0.214-0.415,0.313c-0.114,0.08-0.217,0.154-0.342,0.241c-0.26,0.178-0.538,0.354-0.833,0.524l-16.159,9.33
					L376.053,140.875z"/>
			</g>
		</g>
	</g>
</g>
<g id="Device">
	<g id="Laptop_00000167380072664386744440000017064752009763617676_">
		<g>
			<g>
				<path style="fill:#37474F;" d="M58.334,355.885c0,2.993,2.24,4.911,5.003,6.507l113.248,65.384
					c2.763,1.595,7.243,1.595,10.006,0l182.695-105.479c2.763-1.595,5.003-3.648,5.003-6.642c0-2.993-2.24-4.845-5.003-6.44
					l-113.248-65.384c-2.763-1.595-7.243-1.595-10.006,0L63.336,349.31C60.573,350.905,58.334,352.891,58.334,355.885z"/>
				<path style="fill:#455A64;" d="M63.336,355.087l113.249,65.384c2.763,1.595,7.243,1.595,10.006,0l182.695-105.479
					c2.763-1.595,2.763-4.182,0-5.777l-113.248-65.384c-2.763-1.595-7.243-1.595-10.006,0L63.336,349.31
					C60.573,350.905,60.573,353.492,63.336,355.087z"/>
				<path style="fill:#263238;" d="M181.591,421.676v7.292c-1.814,0-3.628-0.393-5.003-1.19L63.336,362.392
					c-2.761-1.594-5.002-3.514-5.002-6.506c0-2.808,2.014-4.764,4.612-6.353c-2.146,1.516-2.187,4.065,0.39,5.555l113.252,65.387
					C177.963,421.272,179.777,421.676,181.591,421.676z"/>
			</g>
			<path style="fill:#263238;" d="M78.788,350.159l167.89-96.93c1.303-0.752,3.415-0.752,4.718,0l6.115,3.43
				c1.303,0.752,1.303,1.972,0,2.724L89.596,356.298c-1.303,0.752-3.415,0.752-4.718,0l-6.09-3.415
				C77.486,352.131,77.485,350.911,78.788,350.159z"/>
			<g>
				<path style="fill:#263238;" d="M95.276,359.884l167.888-96.931c1.303-0.752,3.233-0.857,4.311-0.235l43.699,25.231
					c1.078,0.622,0.895,1.737-0.407,2.489l-167.693,96.799c-1.303,0.752-3.235,0.86-4.316,0.242l-43.884-25.113
					C93.793,361.747,93.973,360.636,95.276,359.884z"/>
				<path style="fill:#455A64;" d="M240.753,303.665l5.257-3.035c0.223-0.129,0.244-0.327,0.045-0.441l-5.029-2.903
					c-0.199-0.115-0.54-0.103-0.764,0.026l-5.257,3.035c-0.223,0.129-0.243,0.326-0.045,0.44l5.029,2.904
					C240.188,303.806,240.53,303.794,240.753,303.665z M233.078,293.165l-5.257,3.035c-0.223,0.129-0.243,0.327-0.045,0.441
					l5.029,2.904c0.198,0.114,0.54,0.103,0.763-0.026l5.256-3.035c0.224-0.129,0.244-0.327,0.046-0.441l-5.029-2.904
					C233.643,293.024,233.301,293.036,233.078,293.165z M216.096,302.97l-8.896,5.136c-0.223,0.128-0.243,0.326-0.045,0.44
					l5.029,2.904c0.198,0.115,0.54,0.103,0.763-0.026l8.896-5.136c0.223-0.129,0.243-0.326,0.045-0.441l-5.029-2.904
					C216.661,302.829,216.319,302.841,216.096,302.97z M225.396,297.6l-5.257,3.035c-0.223,0.129-0.244,0.326-0.045,0.44
					l5.029,2.904c0.198,0.114,0.54,0.103,0.763-0.026l5.257-3.035c0.223-0.129,0.244-0.326,0.046-0.441l-5.029-2.903
					C225.961,297.459,225.619,297.471,225.396,297.6z M204.774,309.506l-5.257,3.035c-0.224,0.129-0.243,0.326-0.045,0.441
					l5.029,2.904c0.198,0.114,0.54,0.103,0.763-0.026l5.257-3.035c0.223-0.129,0.243-0.326,0.044-0.44l-5.029-2.904
					C205.339,309.365,204.997,309.377,204.774,309.506z M197.091,313.942l-5.257,3.035c-0.223,0.129-0.243,0.327-0.045,0.441
					l5.029,2.903c0.198,0.115,0.54,0.103,0.763-0.026l5.257-3.035c0.223-0.129,0.243-0.327,0.045-0.441l-5.029-2.903
					C197.656,313.801,197.314,313.813,197.091,313.942z M216.802,325.789l5.257-3.035c0.223-0.129,0.243-0.326,0.045-0.44
					l-5.029-2.904c-0.198-0.115-0.541-0.103-0.764,0.026l-5.257,3.035c-0.223,0.129-0.244,0.326-0.045,0.441l5.029,2.904
					C216.237,325.93,216.579,325.918,216.802,325.789z M209.12,330.225l5.257-3.034c0.224-0.129,0.243-0.326,0.045-0.441
					l-5.029-2.903c-0.198-0.114-0.54-0.103-0.764,0.026l-5.256,3.035c-0.223,0.129-0.244,0.326-0.045,0.441l5.029,2.904
					C208.555,330.365,208.896,330.354,209.12,330.225z M201.437,334.661l5.257-3.035c0.224-0.129,0.244-0.326,0.045-0.44
					l-5.029-2.904c-0.199-0.114-0.54-0.102-0.764,0.026l-5.257,3.035c-0.224,0.129-0.244,0.326-0.045,0.441l5.029,2.904
					C200.872,334.801,201.214,334.789,201.437,334.661z M193.754,339.096l5.257-3.035c0.223-0.129,0.243-0.327,0.045-0.441
					l-5.029-2.903c-0.199-0.114-0.54-0.103-0.763,0.026l-5.257,3.035c-0.224,0.129-0.244,0.326-0.045,0.441l5.029,2.903
					C193.189,339.237,193.531,339.225,193.754,339.096z M233.071,308.101l5.256-3.035c0.223-0.129,0.243-0.326,0.045-0.441
					l-5.029-2.904c-0.198-0.115-0.54-0.103-0.763,0.026l-5.256,3.035c-0.224,0.129-0.244,0.327-0.046,0.441l5.029,2.904
					C232.505,308.242,232.847,308.23,233.071,308.101z M224.485,321.353l11.726-6.77c0.223-0.129,0.243-0.326,0.045-0.441
					l-12.213-7.051c-0.199-0.115-0.541-0.103-0.764,0.026l-6.065,3.502c-0.224,0.129-0.244,0.326-0.046,0.441l6.466,3.733
					c0.198,0.114,0.178,0.312-0.046,0.441l-4.852,2.802c-0.223,0.129-0.244,0.326-0.045,0.44l5.029,2.904
					C223.92,321.494,224.262,321.483,224.485,321.353z M189.408,318.377l-5.257,3.035c-0.223,0.129-0.243,0.327-0.045,0.441
					l5.029,2.904c0.198,0.115,0.54,0.103,0.763-0.026l5.257-3.035c0.223-0.129,0.243-0.327,0.045-0.441l-5.029-2.904
					C189.973,318.237,189.632,318.249,189.408,318.377z M181.725,322.813l-5.257,3.035c-0.223,0.129-0.243,0.327-0.045,0.441
					l5.028,2.904c0.199,0.115,0.541,0.103,0.764-0.026l5.257-3.035c0.223-0.129,0.243-0.327,0.045-0.441l-5.029-2.904
					C182.291,322.673,181.949,322.685,181.725,322.813z M139.212,370.172c0.198,0.114,0.54,0.102,0.763-0.026l5.257-3.035
					c0.223-0.129,0.243-0.327,0.045-0.441l-5.029-2.903c-0.198-0.114-0.541-0.102-0.763,0.026l-5.257,3.035
					c-0.223,0.129-0.243,0.326-0.046,0.441L139.212,370.172z M120.263,358.298l-5.256,3.035c-0.224,0.129-0.244,0.327-0.045,0.441
					l5.029,2.903c0.199,0.115,0.54,0.103,0.764-0.026l5.257-3.035c0.223-0.129,0.244-0.326,0.045-0.441l-5.029-2.903
					C120.828,358.158,120.487,358.169,120.263,358.298z M130.005,367.191c0.198,0.115,0.54,0.103,0.763-0.026l5.257-3.036
					c0.223-0.128,0.243-0.326,0.045-0.44l-5.029-2.904c-0.198-0.115-0.54-0.103-0.763,0.026l-5.257,3.035
					c-0.224,0.129-0.243,0.326-0.045,0.441L130.005,367.191z M151.203,371.959l5.257-3.035c0.224-0.129,0.244-0.326,0.046-0.441
					l-5.029-2.904c-0.198-0.114-0.54-0.103-0.764,0.027l-5.256,3.035c-0.223,0.128-0.243,0.326-0.045,0.441l5.029,2.903
					C150.638,372.099,150.98,372.088,151.203,371.959z M142.757,376.42c0.198,0.115,0.54,0.103,0.763-0.026l5.257-3.035
					c0.223-0.129,0.243-0.326,0.045-0.441l-5.029-2.903c-0.199-0.115-0.54-0.103-0.763,0.026l-5.257,3.035
					c-0.223,0.129-0.243,0.326-0.045,0.44L142.757,376.42z M127.946,353.862l-5.257,3.035c-0.223,0.129-0.243,0.327-0.045,0.441
					l5.029,2.904c0.199,0.115,0.54,0.103,0.764-0.026l5.256-3.035c0.224-0.129,0.244-0.326,0.045-0.441l-5.029-2.904
					C128.511,353.722,128.169,353.734,127.946,353.862z M166.36,331.685l-5.257,3.035c-0.223,0.129-0.243,0.326-0.045,0.441
					l5.029,2.904c0.199,0.115,0.54,0.103,0.764-0.026l5.257-3.035c0.223-0.129,0.243-0.326,0.045-0.441l-5.029-2.904
					C166.925,331.544,166.583,331.556,166.36,331.685z M135.629,349.427l-5.257,3.035c-0.223,0.129-0.243,0.327-0.045,0.44
					l5.029,2.904c0.199,0.115,0.54,0.103,0.764-0.026l5.257-3.035c0.224-0.129,0.243-0.326,0.045-0.441l-5.029-2.904
					C136.194,349.286,135.852,349.298,135.629,349.427z M174.042,327.249l-5.257,3.035c-0.224,0.129-0.244,0.326-0.045,0.44
					l5.029,2.904c0.199,0.115,0.54,0.103,0.764-0.026l5.257-3.035c0.224-0.129,0.244-0.326,0.046-0.441l-5.029-2.904
					C174.608,327.108,174.266,327.12,174.042,327.249z M158.677,336.12l-5.257,3.035c-0.223,0.129-0.244,0.326-0.046,0.441
					l5.029,2.903c0.198,0.115,0.54,0.103,0.764-0.026l5.256-3.035c0.223-0.129,0.244-0.326,0.046-0.441l-5.029-2.903
					C159.243,335.98,158.9,335.991,158.677,336.12z M150.995,340.556l-5.257,3.035c-0.224,0.129-0.244,0.326-0.045,0.441
					l5.029,2.904c0.198,0.115,0.54,0.103,0.764-0.026l5.257-3.035c0.223-0.129,0.243-0.327,0.045-0.441l-5.029-2.904
					C151.56,340.415,151.218,340.427,150.995,340.556z M143.312,344.991l-5.257,3.035c-0.223,0.129-0.244,0.326-0.045,0.441
					l5.029,2.904c0.199,0.115,0.54,0.103,0.764-0.026l5.257-3.035c0.223-0.129,0.243-0.326,0.045-0.441l-5.029-2.903
					C143.877,344.851,143.535,344.863,143.312,344.991z M178.389,347.968l5.257-3.035c0.224-0.129,0.244-0.327,0.046-0.441
					l-5.029-2.904c-0.199-0.115-0.54-0.103-0.764,0.026l-5.257,3.034c-0.224,0.129-0.243,0.327-0.045,0.441l5.029,2.903
					C177.824,348.108,178.165,348.096,178.389,347.968z M250.061,283.359l-5.257,3.035c-0.223,0.129-0.243,0.326-0.045,0.441
					l5.029,2.904c0.198,0.114,0.54,0.103,0.763-0.026l5.257-3.035c0.223-0.129,0.243-0.326,0.045-0.441l-5.029-2.904
					C250.627,283.219,250.285,283.231,250.061,283.359z M240.761,288.729l-5.257,3.035c-0.223,0.129-0.243,0.326-0.045,0.441
					l5.029,2.904c0.199,0.115,0.54,0.103,0.764-0.026l5.257-3.035c0.223-0.129,0.244-0.326,0.046-0.441l-5.029-2.904
					C241.326,288.588,240.984,288.6,240.761,288.729z M257.744,278.924l-5.256,3.034c-0.223,0.129-0.243,0.326-0.046,0.441
					l5.029,2.903c0.198,0.115,0.54,0.103,0.763-0.026l5.257-3.035c0.223-0.129,0.244-0.327,0.046-0.441l-5.029-2.904
					C258.309,278.784,257.968,278.794,257.744,278.924z M215.279,318.373l5.256-3.034c0.224-0.129,0.244-0.326,0.045-0.441
					l-5.029-2.903c-0.199-0.115-0.54-0.103-0.764,0.026l-5.257,3.035c-0.223,0.129-0.243,0.326-0.045,0.441l5.029,2.904
					C214.714,318.514,215.056,318.502,215.279,318.373z M266.19,274.462c-0.198-0.114-0.54-0.103-0.764,0.026l-5.256,3.035
					c-0.223,0.129-0.244,0.326-0.045,0.441l5.029,2.904c0.198,0.115,0.54,0.103,0.763-0.026l5.257-3.035
					c0.223-0.129,0.244-0.326,0.045-0.441L266.19,274.462z M186.072,343.532l5.257-3.035c0.223-0.129,0.243-0.327,0.045-0.441
					l-5.029-2.904c-0.198-0.115-0.54-0.103-0.763,0.026l-5.257,3.036c-0.224,0.129-0.243,0.326-0.045,0.44l5.029,2.904
					C185.506,343.673,185.848,343.661,186.072,343.532z M280.286,289.137l5.257-3.035c0.223-0.129,0.243-0.327,0.045-0.441
					l-5.029-2.903c-0.199-0.115-0.54-0.103-0.764,0.026l-5.257,3.035c-0.223,0.129-0.244,0.326-0.045,0.441l5.029,2.903
					C279.721,289.277,280.063,289.266,280.286,289.137z M265.419,289.425l5.257-3.035c0.223-0.129,0.243-0.326,0.045-0.44
					l-5.029-2.904c-0.198-0.114-0.54-0.103-0.763,0.026l-5.257,3.035c-0.224,0.129-0.244,0.327-0.046,0.441l5.029,2.903
					C264.853,289.566,265.196,289.554,265.419,289.425z M273.374,278.61c-0.198-0.115-0.54-0.103-0.763,0.026l-5.257,3.035
					c-0.223,0.129-0.243,0.327-0.045,0.441l5.029,2.904c0.198,0.115,0.54,0.103,0.763-0.026l5.257-3.035
					c0.223-0.129,0.244-0.326,0.045-0.441L273.374,278.61z M274.992,277.676l12.213,7.051c0.198,0.115,0.54,0.103,0.764-0.026
					l5.257-3.035c0.224-0.129,0.244-0.326,0.046-0.441l-12.213-7.052c-0.198-0.114-0.54-0.103-0.764,0.026l-5.257,3.035
					C274.814,277.364,274.793,277.562,274.992,277.676z M257.246,287.508l-5.256,3.035c-0.224,0.129-0.244,0.326-0.045,0.441
					l5.029,2.903c0.199,0.114,0.54,0.103,0.764-0.026l5.257-3.035c0.223-0.129,0.244-0.326,0.045-0.441l-5.029-2.903
					C257.811,287.367,257.469,287.378,257.246,287.508z M199.423,320.891l-5.257,3.035c-0.224,0.129-0.244,0.326-0.045,0.441
					l5.029,2.903c0.198,0.115,0.54,0.103,0.763-0.026l5.257-3.035c0.223-0.129,0.243-0.326,0.045-0.441l-5.028-2.904
					C199.988,320.75,199.646,320.762,199.423,320.891z M271.84,293.599c0.198,0.115,0.54,0.102,0.764-0.026l5.257-3.035
					c0.223-0.129,0.244-0.327,0.045-0.441l-5.029-2.904c-0.198-0.115-0.54-0.103-0.763,0.026l-5.257,3.035
					c-0.223,0.129-0.244,0.327-0.045,0.441L271.84,293.599z M207.105,316.456l-5.257,3.035c-0.223,0.129-0.243,0.327-0.045,0.441
					l5.029,2.904c0.199,0.115,0.54,0.103,0.763-0.026l5.257-3.035c0.224-0.129,0.244-0.327,0.045-0.441l-5.029-2.903
					C207.671,316.315,207.329,316.327,207.105,316.456z M146.894,365.736c0.198,0.115,0.541,0.103,0.764-0.026l5.257-3.035
					c0.223-0.129,0.243-0.326,0.045-0.441l-5.029-2.904c-0.198-0.114-0.54-0.103-0.763,0.026l-5.257,3.035
					c-0.224,0.129-0.243,0.327-0.046,0.44L146.894,365.736z M137.961,356.376l-5.257,3.035c-0.223,0.129-0.243,0.326-0.045,0.441
					l5.029,2.903c0.199,0.115,0.54,0.103,0.764-0.026l5.257-3.035c0.223-0.129,0.244-0.326,0.045-0.441l-5.029-2.904
					C138.526,356.236,138.184,356.247,137.961,356.376z M155.34,361.274l5.257-3.035c0.223-0.129,0.244-0.326,0.046-0.441
					l-5.029-2.903c-0.198-0.115-0.54-0.103-0.764,0.026l-5.256,3.035c-0.223,0.129-0.243,0.327-0.045,0.441l5.029,2.903
					C154.775,361.415,155.117,361.403,155.34,361.274z M163.023,356.839l5.257-3.035c0.224-0.129,0.244-0.327,0.045-0.441
					l-5.029-2.904c-0.198-0.115-0.54-0.103-0.764,0.026l-5.257,3.035c-0.223,0.129-0.244,0.326-0.045,0.441l5.029,2.904
					C162.458,356.979,162.8,356.967,163.023,356.839z M170.706,352.403l5.257-3.034c0.223-0.129,0.243-0.327,0.045-0.441
					l-5.029-2.903c-0.198-0.114-0.54-0.103-0.764,0.026l-5.256,3.034c-0.223,0.129-0.244,0.327-0.045,0.441l5.029,2.904
					C170.141,352.543,170.482,352.532,170.706,352.403z M145.644,351.941l-5.257,3.035c-0.224,0.129-0.243,0.326-0.046,0.441
					l5.03,2.903c0.198,0.115,0.54,0.103,0.764-0.026l5.257-3.035c0.223-0.129,0.243-0.326,0.045-0.441l-5.029-2.903
					C146.209,351.8,145.867,351.812,145.644,351.941z M153.327,347.505l-5.257,3.035c-0.224,0.129-0.244,0.326-0.046,0.441
					l5.029,2.904c0.199,0.115,0.54,0.103,0.764-0.026l5.257-3.035c0.223-0.129,0.243-0.326,0.045-0.441l-5.029-2.903
					C153.892,347.365,153.549,347.376,153.327,347.505z M184.057,329.763l-5.257,3.035c-0.224,0.129-0.243,0.326-0.045,0.441
					l5.029,2.903c0.199,0.115,0.54,0.103,0.764-0.026l5.257-3.034c0.223-0.129,0.243-0.327,0.045-0.441l-5.029-2.903
					C184.622,329.622,184.281,329.633,184.057,329.763z M176.374,334.198l-5.257,3.035c-0.223,0.129-0.244,0.327-0.045,0.441
					l5.029,2.904c0.199,0.115,0.541,0.103,0.764-0.026l5.257-3.034c0.223-0.129,0.244-0.327,0.045-0.441l-5.029-2.903
					C176.94,334.057,176.598,334.069,176.374,334.198z M191.74,325.327l-5.256,3.035c-0.224,0.129-0.244,0.327-0.045,0.441
					l5.029,2.904c0.199,0.115,0.54,0.103,0.764-0.026l5.257-3.035c0.224-0.129,0.243-0.326,0.045-0.44l-5.029-2.904
					C192.305,325.186,191.964,325.198,191.74,325.327z M161.01,343.069l-5.257,3.035c-0.223,0.129-0.244,0.326-0.046,0.44
					l5.029,2.904c0.198,0.115,0.54,0.103,0.763-0.026l5.257-3.035c0.223-0.129,0.244-0.326,0.045-0.441l-5.029-2.903
					C161.574,342.929,161.232,342.94,161.01,343.069z M168.692,338.634l-5.256,3.035c-0.223,0.129-0.244,0.327-0.045,0.441
					l5.029,2.904c0.198,0.115,0.54,0.103,0.763-0.026l5.256-3.035c0.223-0.129,0.244-0.326,0.045-0.44l-5.029-2.904
					C169.258,338.493,168.915,338.505,168.692,338.634z M158.885,367.523l5.257-3.035c0.223-0.129,0.243-0.326,0.045-0.441
					l-5.029-2.903c-0.198-0.115-0.54-0.103-0.764,0.026l-5.256,3.035c-0.223,0.129-0.244,0.327-0.045,0.441l5.029,2.904
					C158.32,367.664,158.662,367.652,158.885,367.523z M118.374,365.611l-5.029-2.904c-0.199-0.115-0.54-0.103-0.764,0.026
					l-5.257,3.035c-0.224,0.129-0.244,0.326-0.045,0.441l5.029,2.904c0.199,0.115,0.541,0.103,0.764-0.026l5.256-3.035
					C118.552,365.923,118.572,365.726,118.374,365.611z M128.388,368.125l-5.029-2.903c-0.198-0.115-0.54-0.103-0.763,0.026
					l-8.087,4.669c-0.223,0.129-0.243,0.326-0.045,0.441l5.029,2.903c0.199,0.114,0.54,0.103,0.763-0.026l8.087-4.669
					C128.566,368.436,128.586,368.239,128.388,368.125z M110.867,359.877l-5.029-2.903c-0.199-0.115-0.54-0.104-0.764,0.026
					l-6.47,3.735c-0.223,0.129-0.244,0.327-0.045,0.441l5.029,2.904c0.199,0.115,0.541,0.103,0.764-0.026l6.47-3.735
					C111.046,360.189,111.066,359.991,110.867,359.877z M115.827,357.013c0.198,0.115,0.54,0.103,0.763-0.026l5.257-3.036
					c0.223-0.129,0.244-0.326,0.045-0.44l-5.029-2.904c-0.198-0.115-0.54-0.103-0.764,0.026l-5.256,3.035
					c-0.224,0.129-0.244,0.327-0.046,0.441L115.827,357.013z M137.594,371.105l-5.029-2.903c-0.199-0.114-0.54-0.103-0.763,0.027
					l-10.109,5.836c-0.223,0.129-0.243,0.326-0.045,0.441l5.029,2.904c0.199,0.115,0.54,0.103,0.764-0.026l10.109-5.836
					C137.772,371.417,137.792,371.22,137.594,371.105z M141.139,377.354l-5.03-2.903c-0.198-0.115-0.54-0.103-0.763,0.026
					l-6.47,3.735c-0.223,0.129-0.244,0.327-0.045,0.441l5.029,2.904c0.199,0.115,0.54,0.103,0.764-0.026l6.47-3.735
					C141.317,377.666,141.337,377.469,141.139,377.354z M172.949,324.034c0.198,0.115,0.54,0.103,0.763-0.026l5.257-3.035
					c0.223-0.129,0.244-0.326,0.045-0.44l-5.029-2.904c-0.199-0.115-0.541-0.103-0.764,0.026l-5.256,3.035
					c-0.224,0.129-0.244,0.326-0.046,0.441L172.949,324.034z M157.583,332.905c0.199,0.115,0.54,0.103,0.764-0.026l5.257-3.035
					c0.223-0.128,0.243-0.326,0.045-0.44l-5.029-2.904c-0.198-0.115-0.54-0.103-0.764,0.026l-5.257,3.035
					c-0.224,0.129-0.243,0.327-0.046,0.441L157.583,332.905z M123.51,352.577c0.199,0.115,0.541,0.103,0.764-0.026l5.257-3.035
					c0.223-0.129,0.244-0.327,0.045-0.441l-5.029-2.904c-0.198-0.114-0.54-0.103-0.764,0.026l-5.257,3.035
					c-0.223,0.129-0.243,0.326-0.045,0.441L123.51,352.577z M165.266,328.469c0.198,0.115,0.54,0.103,0.763-0.026l5.257-3.035
					c0.223-0.129,0.243-0.326,0.045-0.441l-5.029-2.903c-0.199-0.114-0.54-0.103-0.764,0.026l-5.257,3.035
					c-0.223,0.129-0.244,0.326-0.045,0.441L165.266,328.469z M149.901,337.341c0.199,0.114,0.541,0.103,0.764-0.027l5.256-3.034
					c0.223-0.129,0.244-0.326,0.045-0.441l-5.029-2.903c-0.199-0.114-0.54-0.103-0.764,0.026l-5.257,3.035
					c-0.223,0.129-0.243,0.327-0.045,0.441L149.901,337.341z M144.912,377.665c-0.199-0.114-0.54-0.103-0.764,0.026l-8.087,4.669
					c-0.224,0.129-0.244,0.327-0.045,0.441l5.029,2.903c0.199,0.115,0.54,0.103,0.763-0.026l8.087-4.669
					c0.223-0.129,0.243-0.326,0.045-0.441L144.912,377.665z M138.875,343.706c0.199,0.115,0.54,0.103,0.764-0.026l5.257-3.035
					c0.223-0.129,0.243-0.327,0.045-0.441l-5.029-2.904c-0.199-0.115-0.54-0.103-0.764,0.026l-5.257,3.035
					c-0.223,0.129-0.243,0.326-0.045,0.441L138.875,343.706z M131.193,348.142c0.198,0.115,0.54,0.103,0.764-0.026l5.256-3.035
					c0.223-0.129,0.244-0.326,0.046-0.44l-5.029-2.904c-0.198-0.115-0.54-0.103-0.764,0.026l-5.257,3.035
					c-0.223,0.129-0.243,0.326-0.045,0.441L131.193,348.142z M287.244,295.489c-0.198-0.115-0.54-0.103-0.763,0.026l-12.939,7.471
					c-0.224,0.129-0.244,0.326-0.046,0.441l5.03,2.903c0.198,0.115,0.54,0.103,0.764-0.026l12.939-7.471
					c0.223-0.129,0.243-0.326,0.045-0.441L287.244,295.489z M270.262,305.294c-0.198-0.115-0.54-0.103-0.764,0.026l-5.257,3.034
					c-0.223,0.129-0.243,0.327-0.045,0.441l5.029,2.904c0.199,0.114,0.54,0.103,0.764-0.027l5.257-3.035
					c0.223-0.129,0.243-0.326,0.045-0.441L270.262,305.294z M166.568,363.087l5.257-3.035c0.223-0.129,0.243-0.326,0.045-0.441
					l-5.029-2.904c-0.198-0.114-0.54-0.103-0.763,0.026l-5.257,3.035c-0.223,0.129-0.243,0.326-0.045,0.441l5.029,2.904
					C166.003,363.228,166.345,363.216,166.568,363.087z M254.896,314.165c-0.199-0.115-0.54-0.103-0.764,0.026l-5.257,3.034
					c-0.223,0.13-0.243,0.327-0.045,0.441l5.029,2.904c0.199,0.114,0.54,0.103,0.764-0.026l5.257-3.035
					c0.224-0.129,0.244-0.326,0.045-0.44L254.896,314.165z M294.927,291.053c-0.199-0.115-0.54-0.103-0.763,0.026l-5.257,3.035
					c-0.223,0.129-0.243,0.326-0.045,0.44l5.029,2.904c0.198,0.115,0.54,0.103,0.763-0.026l5.256-3.035
					c0.224-0.129,0.244-0.326,0.046-0.441L294.927,291.053z M307.639,289.522l-12.214-7.052c-0.198-0.115-0.54-0.103-0.763,0.026
					l-5.257,3.035c-0.223,0.129-0.244,0.326-0.045,0.44l12.213,7.052c0.198,0.115,0.54,0.103,0.763-0.026l5.257-3.035
					C307.817,289.833,307.837,289.636,307.639,289.522z M226.187,330.741c-0.198-0.115-0.54-0.103-0.763,0.026l-6.47,3.735
					c-0.223,0.129-0.243,0.327-0.045,0.441l5.029,2.903c0.198,0.115,0.54,0.103,0.764-0.026l6.469-3.735
					c0.223-0.129,0.244-0.327,0.045-0.441L226.187,330.741z M245.596,319.535c-0.199-0.115-0.541-0.103-0.764,0.026l-8.087,4.669
					c-0.223,0.129-0.243,0.326-0.045,0.441l5.029,2.904c0.198,0.115,0.54,0.103,0.764-0.026l8.087-4.669
					c0.223-0.129,0.243-0.326,0.045-0.441L245.596,319.535z M208.395,341.012c-0.198-0.114-0.54-0.103-0.764,0.026l-43.266,24.98
					c-0.223,0.129-0.244,0.326-0.045,0.44l5.029,2.904c0.198,0.114,0.54,0.103,0.764-0.026l43.266-24.979
					c0.224-0.129,0.244-0.327,0.045-0.441L208.395,341.012z M162.704,367.393c-0.199-0.115-0.541-0.103-0.763,0.026l-6.47,3.735
					c-0.224,0.129-0.243,0.327-0.045,0.441l5.029,2.903c0.199,0.114,0.541,0.103,0.764-0.026l6.47-3.736
					c0.223-0.129,0.243-0.326,0.045-0.44L162.704,367.393z M217.291,335.877c-0.198-0.115-0.54-0.103-0.763,0.026l-6.47,3.735
					c-0.223,0.129-0.244,0.326-0.045,0.441l5.029,2.903c0.198,0.115,0.54,0.103,0.763-0.026l6.47-3.736
					c0.223-0.129,0.243-0.326,0.045-0.44L217.291,335.877z M153.807,372.529c-0.198-0.115-0.54-0.103-0.764,0.026l-6.47,3.735
					c-0.223,0.129-0.243,0.327-0.045,0.441l5.029,2.904c0.199,0.115,0.54,0.103,0.763-0.026l6.47-3.735
					c0.223-0.129,0.244-0.326,0.046-0.441L153.807,372.529z M235.083,325.605c-0.199-0.115-0.54-0.103-0.764,0.026l-6.47,3.735
					c-0.223,0.128-0.243,0.326-0.045,0.44l5.029,2.904c0.198,0.115,0.54,0.103,0.763-0.026l6.47-3.735
					c0.223-0.129,0.243-0.326,0.045-0.441L235.083,325.605z M262.579,309.729c-0.199-0.115-0.54-0.103-0.764,0.026l-5.256,3.035
					c-0.223,0.129-0.243,0.326-0.045,0.441l5.029,2.904c0.198,0.114,0.54,0.102,0.763-0.027l5.257-3.034
					c0.224-0.129,0.243-0.327,0.045-0.441L262.579,309.729z M279.787,297.72l5.257-3.035c0.223-0.129,0.244-0.327,0.046-0.441
					l-5.029-2.903c-0.198-0.115-0.54-0.103-0.764,0.026l-5.257,3.034c-0.223,0.129-0.243,0.327-0.045,0.441l5.029,2.903
					C279.222,297.861,279.564,297.849,279.787,297.72z M248.436,299.229l5.256-3.035c0.224-0.129,0.243-0.326,0.046-0.441
					l-5.029-2.903c-0.198-0.114-0.54-0.103-0.764,0.026l-5.257,3.035c-0.224,0.129-0.243,0.326-0.045,0.441l5.029,2.903
					C247.871,299.37,248.213,299.359,248.436,299.229z M228.03,327.603l15.366-8.871c0.223-0.129,0.243-0.326,0.045-0.441
					l-5.029-2.904c-0.198-0.114-0.54-0.103-0.764,0.026l-15.365,8.871c-0.224,0.129-0.244,0.326-0.045,0.441l5.029,2.903
					C227.465,327.743,227.807,327.732,228.03,327.603z M271.341,302.182c0.198,0.115,0.54,0.103,0.763-0.026l5.257-3.035
					c0.223-0.129,0.244-0.326,0.045-0.441l-5.029-2.904c-0.198-0.115-0.54-0.103-0.763,0.026l-5.257,3.035
					c-0.223,0.128-0.243,0.326-0.045,0.44L271.341,302.182z M264.921,298.008l5.257-3.035c0.223-0.129,0.243-0.326,0.045-0.44
					l-5.029-2.904c-0.198-0.115-0.541-0.103-0.763,0.026l-5.256,3.035c-0.224,0.129-0.244,0.326-0.046,0.441l5.029,2.904
					C264.355,298.149,264.698,298.137,264.921,298.008z M220.347,332.038l5.257-3.035c0.223-0.129,0.243-0.326,0.045-0.44
					l-5.029-2.904c-0.198-0.115-0.54-0.103-0.764,0.026l-5.257,3.035c-0.223,0.129-0.243,0.326-0.045,0.441l5.029,2.903
					C219.782,332.179,220.124,332.167,220.347,332.038z M254.358,311.987c0.199,0.115,0.54,0.103,0.764-0.026l5.256-3.035
					c0.224-0.129,0.243-0.326,0.045-0.441l-5.029-2.903c-0.198-0.115-0.54-0.103-0.763,0.026l-5.257,3.035
					c-0.224,0.129-0.244,0.326-0.045,0.441L254.358,311.987z M181.934,354.216l5.257-3.035c0.223-0.129,0.243-0.326,0.045-0.441
					l-5.029-2.904c-0.198-0.115-0.54-0.103-0.764,0.026l-5.257,3.035c-0.223,0.129-0.243,0.326-0.046,0.441l5.029,2.904
					C181.369,354.357,181.711,354.345,181.934,354.216z M189.617,349.781l5.257-3.035c0.223-0.129,0.243-0.326,0.045-0.441
					l-5.029-2.904c-0.198-0.114-0.54-0.103-0.763,0.026l-5.257,3.035c-0.223,0.129-0.244,0.327-0.045,0.441l5.029,2.903
					C189.052,349.921,189.393,349.91,189.617,349.781z M174.251,358.652l5.257-3.035c0.223-0.129,0.244-0.326,0.045-0.441
					l-5.029-2.903c-0.199-0.114-0.54-0.103-0.764,0.026l-5.257,3.035c-0.223,0.129-0.243,0.326-0.045,0.441l5.029,2.904
					C173.686,358.792,174.027,358.781,174.251,358.652z M204.982,340.909l5.257-3.035c0.223-0.129,0.244-0.327,0.045-0.441
					l-5.029-2.903c-0.198-0.115-0.54-0.103-0.764,0.026l-5.257,3.035c-0.223,0.129-0.243,0.326-0.045,0.44l5.029,2.904
					C204.417,341.05,204.759,341.038,204.982,340.909z M197.299,345.345l5.257-3.035c0.223-0.129,0.244-0.326,0.045-0.441
					l-5.029-2.903c-0.198-0.115-0.54-0.103-0.764,0.026l-5.257,3.035c-0.223,0.129-0.243,0.327-0.045,0.441l5.029,2.904
					C196.734,345.486,197.076,345.474,197.299,345.345z M212.664,336.474l5.257-3.035c0.223-0.129,0.243-0.326,0.045-0.441
					l-5.029-2.903c-0.198-0.115-0.54-0.103-0.763,0.026l-5.257,3.035c-0.223,0.129-0.243,0.326-0.045,0.441l5.029,2.904
					C212.1,336.615,212.441,336.603,212.664,336.474z M254.589,274.768c0.199,0.115,0.541,0.103,0.764-0.026l5.257-3.035
					c0.223-0.129,0.243-0.326,0.045-0.44l-1.338-0.773c-0.198-0.114-0.541-0.102-0.764,0.026l-5.257,3.035
					c-0.223,0.129-0.243,0.326-0.045,0.441L254.589,274.768z M216.404,298.945c0.198,0.115,0.54,0.103,0.763-0.026l5.257-3.035
					c0.223-0.129,0.244-0.326,0.045-0.441l-5.029-2.903c-0.199-0.115-0.541-0.103-0.764,0.025l-5.257,3.035
					c-0.224,0.129-0.244,0.326-0.046,0.441L216.404,298.945z M231.769,290.074c0.198,0.115,0.54,0.103,0.763-0.026l5.256-3.035
					c0.224-0.129,0.244-0.326,0.046-0.441l-5.029-2.903c-0.198-0.115-0.54-0.103-0.763,0.026l-5.257,3.035
					c-0.223,0.128-0.243,0.327-0.045,0.441L231.769,290.074z M207.022,304.362c0.199,0.114,0.54,0.103,0.764-0.026l5.257-3.035
					c0.223-0.129,0.243-0.326,0.045-0.441l-5.029-2.904c-0.199-0.114-0.54-0.103-0.764,0.027l-5.256,3.035
					c-0.223,0.129-0.243,0.326-0.045,0.441L207.022,304.362z M224.087,294.51c0.198,0.115,0.54,0.103,0.764-0.026l5.257-3.035
					c0.223-0.129,0.243-0.326,0.045-0.44l-5.029-2.903c-0.198-0.115-0.54-0.103-0.763,0.026l-5.257,3.035
					c-0.224,0.129-0.244,0.326-0.045,0.441L224.087,294.51z M191.657,313.233c0.199,0.114,0.54,0.103,0.764-0.027l5.256-3.035
					c0.223-0.129,0.243-0.327,0.046-0.441l-5.029-2.903c-0.199-0.114-0.54-0.103-0.764,0.026l-5.257,3.035
					c-0.223,0.129-0.243,0.327-0.044,0.441L191.657,313.233z M199.339,308.797c0.199,0.114,0.54,0.103,0.764-0.026l5.257-3.035
					c0.223-0.129,0.243-0.326,0.044-0.441l-5.029-2.903c-0.198-0.115-0.54-0.103-0.763,0.026l-5.257,3.035
					c-0.223,0.129-0.243,0.326-0.045,0.441L199.339,308.797z M239.224,283.639c0.198,0.115,0.54,0.103,0.764-0.026l5.257-3.035
					c0.223-0.129,0.243-0.326,0.045-0.44l-1.339-0.773c-0.198-0.115-0.54-0.103-0.763,0.026l-5.257,3.035
					c-0.224,0.129-0.244,0.326-0.046,0.441L239.224,283.639z M262.272,270.332c0.198,0.114,0.54,0.103,0.763-0.026l5.257-3.035
					c0.223-0.129,0.243-0.326,0.045-0.441l-1.339-0.773c-0.199-0.114-0.54-0.102-0.764,0.027l-5.257,3.035
					c-0.223,0.129-0.243,0.327-0.045,0.441L262.272,270.332z M272.837,276.432c0.199,0.115,0.54,0.103,0.763-0.026l5.257-3.035
					c0.224-0.129,0.243-0.326,0.046-0.441l-5.029-2.904c-0.198-0.115-0.54-0.103-0.764,0.026l-5.257,3.035
					c-0.223,0.129-0.244,0.326-0.045,0.44L272.837,276.432z M287.47,293.285l5.257-3.035c0.223-0.129,0.244-0.326,0.045-0.441
					l-5.029-2.903c-0.198-0.115-0.54-0.103-0.764,0.026l-5.256,3.035c-0.223,0.129-0.243,0.326-0.045,0.441l5.029,2.904
					C286.905,293.426,287.247,293.414,287.47,293.285z M246.907,279.203c0.198,0.115,0.54,0.103,0.764-0.026l5.256-3.035
					c0.223-0.129,0.244-0.326,0.045-0.441l-1.339-0.772c-0.199-0.115-0.54-0.103-0.764,0.026l-5.257,3.035
					c-0.223,0.129-0.243,0.326-0.045,0.441L246.907,279.203z M183.974,317.668c0.199,0.115,0.541,0.103,0.764-0.026l5.257-3.035
					c0.224-0.129,0.244-0.327,0.045-0.441l-5.029-2.904c-0.198-0.115-0.54-0.103-0.763,0.026l-5.257,3.035
					c-0.223,0.129-0.243,0.326-0.045,0.441L183.974,317.668z"/>
			</g>
			<g id="Tuch_Pad_00000103238966151829536630000004269211075705393842_">
				<polygon style="fill:#263238;" points="205.979,361.388 207.122,362.047 237.48,379.572 291.47,348.4 292.594,347.76 
					261.092,329.576 				"/>
				<polygon style="fill:#37474F;" points="290.776,348.8 261.092,331.675 207.814,362.447 237.48,379.572 				"/>
			</g>
		</g>
		<g>
			<path style="fill:#37474F;" d="M56.16,350.083c-2.194-1.011-2.789-2.753-2.998-5.823l-9.818-143.63
				c-0.209-3.07,1.861-6.851,4.624-8.447L230.663,86.705c2.763-1.595,4.788-2.462,7.34-0.718c2.67,1.824,2.606,2.71,2.816,5.779
				l9.817,143.629c0.209,3.07-1.861,6.852-4.624,8.447L63.315,349.321C60.552,350.916,58.987,351.386,56.16,350.083z"/>
			<path style="fill:#455A64;" d="M240.82,91.762c-0.209-3.063-2.621-4.257-5.384-2.669L52.737,194.577
				c-1.381,0.798-2.595,2.146-3.422,3.676l-4.767-2.397l-0.009,0c0.837-1.53,2.051-2.878,3.432-3.676L230.66,86.704
				c2.763-1.596,4.799-2.478,7.339-0.718C240.681,87.845,240.611,88.699,240.82,91.762z"/>
			<path style="fill:#263238;" d="M62.944,349.533c-2.515,1.485-4.108,1.669-6.784,0.546c-2.046-0.859-2.787-2.749-2.996-5.817
				l-9.817-143.635c-0.105-1.534,0.355-3.247,1.2-4.768l4.767,2.38l0.001,0.011c-0.832,1.531-1.304,3.234-1.2,4.768l9.817,143.635
				C58.126,349.499,60.584,350.927,62.944,349.533z"/>
			<path d="M55.912,200.069l175.817-101.48c1.658-0.957,3.104-0.24,3.23,1.602l9.16,133.991c0.126,1.842-1.117,4.111-2.774,5.068
				L65.526,340.729c-1.658,0.957-3.104,0.24-3.229-1.602l-9.16-133.99C53.012,203.295,54.254,201.026,55.912,200.069z"/>
			<path style="fill:#FFFFFF;" d="M55.912,200.069c-1.658,0.957-2.9,3.226-2.775,5.068l9.008,131.757l173.807-100.317
				c1.658-0.957,2.9-3.226,2.775-5.068l-9.007-131.76L55.912,200.069z"/>
		</g>
	</g>
</g>
<g id="Character_3">
	<g id="Character_4_">
		<g id="Top_6_">
			<g id="Arm_00000022538555558455619440000015623806769915580586_">
				<path style="fill:#263238;" d="M242.653,174.24c1.474-7.194,8.438-12.965,16.693-0.654c4.933,7.358,6.417,18.013,4.748,24.667
					c-1.563,6.232-10.322,11.675-18.051,1.914C239.075,191.367,241.637,179.199,242.653,174.24z"/>
				<g id="Arm_00000129912934985719949810000005918312489802763929_">
					<path style="fill:#C8856A;" d="M273.276,140.259c-0.936-1.073-2.225-1.623-3.455-2.408c-0.158-0.101-0.318-0.216-0.402-0.384
						c-0.075-0.15-0.079-0.325-0.078-0.493c0.042-5.081,2.776-10.009,4.677-14.592c0.97-2.34,3.329-6.008,1.025-8.297
						c-0.708-0.703-1.891-0.723-2.793-0.296c-0.902,0.427-1.577,1.212-2.185,2.003c-2.269,2.952-3.982,6.285-5.682,9.598
						c-1.491,2.906-2.982,5.812-4.473,8.718c-2.652,5.169-5.315,10.363-7.251,15.853c-0.921,2.611-1.652,5.141-1.831,7.893
						c-0.18,2.764-0.092,5.6-1.387,8.135c-2.002,3.918-19.057,24.01-19.057,24.01s-8.129-11.943-13.432-19.287
						c-13.461-18.643-19.073-29.261-41.69-28.595l6.42,39.822c0,0,16.671,20.842,30.117,35.282
						c10.045,10.788,16.207,15.45,26.502,7.842c5.127-3.789,14.689-21.228,19.621-31.451c4.931-10.223,8.295-15.324,11.459-19.465
						c1.865-2.441,3.73-4.882,5.596-7.324c1.725-2.257,3.322-4.785,4.295-7.454c0.973-2.669,1.133-3.693,1.334-5.873
						c0.145-1.58-3.74-4.505-4.52-5.887c-1.169-2.072-1.09-4.689-2.339-6.713C273.603,140.664,273.445,140.453,273.276,140.259z"/>
					<path style="fill:#AF6152;" d="M264.004,145.854c-0.219-0.556-0.452-1.108-0.699-1.655c-0.01-0.023-0.021-0.045-0.031-0.068
						c-0.229,0.589-0.416,1.194-0.603,1.797c-0.21,0.677,0.245,1.324,0.484,1.964c0.275,0.739,0.522,1.489,0.735,2.248
						c0.424,1.516,0.71,3.074,0.801,4.647c0.203,3.488-0.755,6.799-2.407,9.857c-0.064,0.119,0.038,0.52,0.206,0.341
						c2.515-2.679,3.464-6.37,3.431-9.97C265.892,151.833,265.154,148.781,264.004,145.854z"/>
					<g>
						<path style="fill:#AF6152;" d="M230.384,189.999c0,0-7.836,8.409-7.623,16.874c0,0-3.462-8.365,5.973-19.285L230.384,189.999z
							"/>
					</g>
				</g>
				<g id="Fingers">
					<g>
						<path style="fill:#C8856A;" d="M254.934,140.418c1.261-1.785,2.681-3.477,3.986-5.165c1.397-1.808,2.794-3.617,4.192-5.425
							c0.362-0.468,0.806-1.165,1.465-1.203c0.678-0.039,1.391,0.625,1.687,1.176c0.609,1.134,0.537,2.439,0.477,3.683
							c-0.086,1.795-0.562,3.557-1.196,5.231c-1.2,3.17-2.649,6.248-3.608,9.506c-1.552,5.275-11.265,12.213-11.265,12.213
							c0.085-3.128,0.138-6.254,0.223-9.382c0.042-1.569,0.087-3.154,0.491-4.671c0.322-1.21,0.443-1.862,1.468-3.198
							C253.524,142.309,254.292,141.326,254.934,140.418z"/>
						<g>
							<path style="fill:#AF6152;" d="M258.92,135.253c1.406-2.112,2.865-4.145,4.377-6.208c1.069-1.575,2.98-0.48,3.5,0.961
								c1.756,6.54-2.594,11.559-4.531,17.472c1.086-5.96,5.226-10.998,3.796-17.172c-0.347-0.926-1.422-1.897-2.256-0.826
								C262.224,131.406,260.602,133.372,258.92,135.253L258.92,135.253z"/>
						</g>
						<path style="fill:#AF6152;" d="M262.004,146.623c-0.496,0.593-0.973,0.995-1.667,1.266c-0.807,0.316-1.697,0.411-2.548,0.533
							c-0.096,0.014-0.115,0.231-0.011,0.237c0.131,0.007,0.262,0.014,0.394,0.019c0.939,0.035,1.912,0,2.799-0.342
							c0.417-0.16,0.823-0.397,1.168-0.681c0.164-0.135,0.591-0.53,0.662-0.724c0.093-0.253,0.148-1.526,0.096-1.972
							C262.733,145.473,262.414,146.134,262.004,146.623z"/>
					</g>
					<g>
						<path style="fill:#C8856A;" d="M276.8,141.171c-1.384,0.388-2.532,1.359-3.66,2.217c-1.067,0.813-2.291,1.624-3.199,2.613
							c-0.568,0.619-0.996,1.351-1.419,2.077c-1.07,1.835-2.145,3.681-2.904,5.666c-0.265,0.693-0.483,1.498-0.127,2.149
							c0.176,0.321,0.475,0.56,0.804,0.722c0.937,0.462,2.086,0.313,3.017-0.161c0.931-0.474,1.68-1.236,2.373-2.018
							c0.693-0.782,1.354-1.603,2.176-2.248c0.916-0.718,1.998-1.19,2.983-1.811c1.712-1.08,3.081-2.974,3.415-4.986
							c0.3-1.807-0.532-4.654-2.806-4.354C277.229,141.066,277.012,141.112,276.8,141.171z"/>
						<g>
							<path style="fill:#AF6152;" d="M273.14,143.389c-1.975,1.471-3.723,3.081-4.753,5.366c-1.022,2.066-2.593,4.189-2.783,6.508
								c0.028,0.513,0.387,0.917,0.894,1.137c1.677,0.721,3.383-0.387,4.563-1.615c1.619-1.979,3.442-3.369,5.783-4.408
								c-2.194,1.2-3.943,2.716-5.458,4.718c-1.174,1.387-3.229,2.63-5.116,1.814c-0.613-0.234-1.207-0.855-1.246-1.592
								c0.194-2.519,1.806-4.631,2.977-6.786C269.094,146.296,271.045,144.672,273.14,143.389L273.14,143.389z"/>
						</g>
					</g>
					<g>
						<path style="fill:#C8856A;" d="M270.795,136.246c-0.923,0.898-1.891,1.821-2.711,2.844c-1.261,1.572-2.601,3.504-2.412,5.625
							c0.033,0.366,0.113,0.736,0.316,1.042c0.289,0.436,0.813,0.573,1.3,0.666c1.805,0.344,3.391-0.477,4.753-1.586
							c1.193-0.971,2.371-1.976,3.39-3.133c0.835-0.947,1.987-1.985,2.517-3.142c0.458-1,0.208-2.223-0.424-3.122
							c-0.517-0.734-1.276-1.267-2.122-1.556c-1.026-0.351-1.77,0.007-2.654,0.584C271.973,134.976,271.434,135.624,270.795,136.246
							z"/>
						<g>
							<path style="fill:#AF6152;" d="M270.795,136.246c-1.856,2.051-3.91,4.138-4.705,6.826c-0.19,0.796-0.286,1.829,0.14,2.524
								c1.281,1.206,3.502,0.535,4.857-0.332c1.533-1.04,3.004-2.261,4.344-3.559c-1.179,1.488-2.574,2.763-4.096,3.933
								c-1.718,1.4-6.112,2.02-5.955-1.231C265.493,140.932,268.375,138.388,270.795,136.246L270.795,136.246z"/>
						</g>
					</g>
					<g>
						<path style="fill:#C8856A;" d="M274.714,151.341c-1.466,1.04-2.808,2.256-3.988,3.612c-0.606,0.696-1.169,1.43-1.685,2.195
							c-0.518,0.769-1.062,1.466-1.417,2.339c-0.589,1.443,0.726,2.084,1.967,2.147c1.779,0.09,3.497-1.04,4.839-2.109
							c0.464-0.369,0.903-0.771,1.384-1.118c1.435-1.036,2.986-1.634,4.09-3.079c0.719-0.94,0.893-2.132,0.769-3.307
							c-0.056-0.531-0.202-1.063-0.507-1.5c-0.545-0.78-1.6-1.073-2.498-0.845c-0.416,0.105-0.799,0.311-1.171,0.525
							C275.884,150.552,275.289,150.933,274.714,151.341z"/>
						<g>
							<path style="fill:#AF6152;" d="M276.496,150.2c-3.075,1.947-5.546,4.545-7.549,7.553c-0.981,1.394-2.168,3.217,0.371,3.576
								c1.769,0.225,3.347-0.792,4.746-1.802c1.77-1.643,4.206-2.412,5.84-4.199c-0.68,1.01-1.729,1.704-2.725,2.362
								c-2.524,1.541-4.624,4.533-7.933,4.191c-3.017-0.43-2.112-2.683-0.734-4.43C270.554,154.443,273.244,151.859,276.496,150.2
								L276.496,150.2z"/>
						</g>
					</g>
				</g>
				<path style="fill:#37474F;" d="M180.286,141.168c15.622,1.735,18.936,4.917,26.626,13.932
					c7.689,9.015,23.472,32.013,23.472,32.013l14.741-18.257c0,0-5.494,8.513-2.234,23.617c2.291,10.615,12.303,16.435,19.09,9.771
					c-18.757,20.412-23.222,27.53-32.926,27.575c-6.914,0.032-13.609-7.076-18.997-12.776c-5.389-5.701-29.771-30.82-29.771-30.82
					V141.168z"/>
				<path style="fill:#263238;" d="M230.384,187.114c-6.791,8.644-7.844,18.709-6.383,25.431
					c-4.236-10.079-1.94-21.254,4.143-28.668L230.384,187.114z"/>
			</g>
			<g id="Head_4_">
				<g id="Head_5_">
					<g>
						<g id="XMLID_892_">
							<path style="fill:#263238;" d="M131.562,130.621c0.034-4.218-7.623-14.754-10.917-20.361
								c-3.295-5.607-6.882-22.434,3.569-26.978c-1.814-9.159,11.193-16.746,22.885-19.07c16.565-3.293,30.264,3.925,33.972,13.578
								c3.708,9.652-1.888,15.492-1.888,15.492L131.562,130.621z"/>
							<g id="XMLID_909_">
								<path style="fill:#C8856A;" d="M122.642,122.081c4.532,2.944,8.707-0.602,8.707-0.602l0.488,21.056
									c0.938,3.578,8.718,28.148,29.687,26.609c10.255-0.753,8.975-20.843,2.097-26.156l-0.056-4.569c0,0,2.729,0.03,6.107-0.489
									c5.634-0.849,9.198-5.296,10.918-11.381c2.758-9.785,1.947-23.325-0.546-42.107c-6.28-4.922-27.33-5.316-40.62,3.007
									c0.581,11.208-3.14,14.257-3.142,18.327c-0.858,1.605-1.755,2.543-2.445,3.14c-2.072,1.778-3.904-2.703-5.443-4.679
									c-2.666-3.421-8.712-4.145-11.549,1.787C113.978,112.064,118.726,119.548,122.642,122.081z"/>
							</g>
							<g id="XMLID_893_">
								<path id="XMLID_907_" style="fill:#263238;" d="M156.699,102.151c-0.003,1.447-1.135,2.613-2.526,2.606
									c-1.392-0.006-2.518-1.184-2.515-2.631c0.004-1.446,1.134-2.612,2.526-2.606
									C155.576,99.528,156.701,100.706,156.699,102.151z"/>
								<path id="XMLID_906_" style="fill:#263238;" d="M154.966,95.259l-5.239,3.236c-0.87-1.508-0.402-3.456,1.044-4.349
									C152.219,93.253,154.097,93.751,154.966,95.259z"/>
								<path id="XMLID_902_" style="fill:#263238;" d="M178.177,96.296l-6.026-1.481c0.349-1.692,1.982-2.733,3.646-2.324
									C177.462,92.9,178.527,94.603,178.177,96.296z"/>
								<path id="XMLID_895_" style="fill:#263238;" d="M176.915,101.262c-0.003,1.446-1.133,2.613-2.526,2.606
									c-1.392-0.007-2.517-1.184-2.514-2.631c0.003-1.446,1.134-2.612,2.526-2.606C175.792,98.638,176.918,99.816,176.915,101.262
									z"/>
								<path id="XMLID_894_" style="fill:#AF6152;" d="M161.98,94.809l1.6,17.661l9.85-2.572
									C170.484,104.035,166.232,99.444,161.98,94.809z"/>
							</g>
						</g>
					</g>
					<g>
						<path style="fill:#263238;" d="M136.805,102.936c-1.589,7.929,5.51,14.486,9.853,14.801c5.751,0.416,8.274-2.902,18.412-3.823
							c6.15-0.558,8.244,1.094,11.871,2.214c2.681,0.828,4.796,0.153,4.978-2.369c0.242-3.352,0.138-10.07-0.206-14.031
							c0.516,3.048,1.223,11.155,1.113,20.218c-0.07,5.748-1.505,11.206-4.396,14.14c-4.003,4.063-12.34,7.648-23.906,6.177
							c-11.397-1.45-17.287-4.515-19.632-10.27c-4.36-10.701-2.386-18.717-5.533-24.332
							C127.859,102.985,136.805,102.936,136.805,102.936z"/>
						<path style="fill:#C8856A;" d="M164.011,117.655c-5.8,0.404-7.598,1.628-7.515,5.616c0.118,5.71,0.575,7.595,2.766,7.693
							c2.587,0.116,4.475,0.102,4.418-1.515c-0.058-1.636-0.144-3.047-0.698-3.603c-0.997-1.001-0.698-1.19,1.85-1.362
							c2.636-0.179,2.553,0.275,1.873,1.126c-0.498,0.623-0.274,2.569-0.168,3.687c0.117,1.226,0.432,1.674,4.053,0.992
							c3.162-0.596,2.386-3.104,1.883-7.973C172.135,119.037,170.576,117.197,164.011,117.655z"/>
						<path id="XMLID_321_" style="fill:#AF6152;" d="M160.377,119.449l7.795,0.361c-0.044,2.215-1.824,3.93-3.978,3.83
							C162.042,123.542,160.332,121.664,160.377,119.449z"/>
						<path style="fill:#FFA8A7;" d="M161.49,120.525c-0.325,0.019-0.633,0.083-0.93,0.168c0.476,1.631,1.903,2.868,3.635,2.948
							c0.434,0.02,0.846-0.051,1.239-0.167C165.26,121.721,163.529,120.408,161.49,120.525z"/>
					</g>
				</g>
			</g>
			<g id="Chest_7_">
				<path style="fill:#455A64;" d="M208.382,252.478l-104.47,60.309c-0.569-25.817,0.667-44.214-1.449-68.974
					c-1.555-18.263-7.741-45.938-8.478-65.721c-0.453-11.864,1.058-20.885,6.692-23.338c14.673-6.372,27.381-11.411,29.977-13.26
					c0,0,3.43,5.235,10.602,9.314c4.159,2.373,9.581,4.355,16.326,4.701c6.905-1.12,6.034-12.504,6.034-12.504l-0.027-2.613
					c0.924-0.098,1.813-0.231,2.666-0.391c4.986,0.213,15.428,0.827,18.246,2.204c7.048,3.439,15.375,11.438,20.316,56.212
					C206.222,211.117,207.493,233.904,208.382,252.478z"/>
				<path style="fill:#BA68C8;" d="M165.51,187.112c0,0-6.221-6.665-6.817-9.092c-2.613-10.567-5.866-20.947-5.866-20.947
					s-5.866-0.231-13.038-3.208c-7.172-2.968-9.243-8.994-10.211-11.713c0,0,0.587-3.519,0.578-6.088c0-2.151,1.484-2,1.484-2
					s0.187,3.937,3.537,7.998c5.217,6.337,15.526,7.288,17.801,7.661c1.715,2.124,4.595,5.314,4.595,5.314s1.306-3.413,1.858-6.123
					c3.928-2.24,4.195-5.261,4.177-7.092l-0.107-1.422c0.418-0.044,0.826-0.089,1.235-0.151c0.116,0.249,0.231,0.533,0.347,0.871
					c0.782,2.302,2.311,6.639,0.507,10.371c-1.457,3.004-4.381,3.982-4.381,3.982s3.777,12.789,5.483,20.414
					C167.172,180.518,165.51,187.112,165.51,187.112z"/>
			</g>
			<g>
				<path style="fill:#BA68C8;" d="M112.741,76.998c-1.63-7.471,0.372-18.922,20.644-26.067c21.581-7.606,31.104-0.822,33.688,3.655
					L112.741,76.998z"/>
				<path style="opacity:0.15;" d="M120.168,71.542c4.575-5.266,9.497-10.231,14.723-14.852c-3.542,0.39-6.952,1.599-10.49,2.022
					c-0.308,0.037-0.672,0.046-0.865-0.197c-0.141-0.178-0.134-0.429-0.107-0.654c0.14-1.158,0.665-2.255,1.441-3.125
					c-12.305,6.971-13.493,16.01-12.128,22.262l4.228-1.744C118.04,74.021,119.097,72.775,120.168,71.542z"/>
				<path style="fill:#E6E6E6;" d="M121.397,101.841c2.377-12.379,12.805-24.842,32.781-28.177
					c19.977-3.335,27.725,6.841,27.725,6.841s-1.215-6.088-3.147-13.161c-3.559-13.028-16.646-21.739-42.506-12.693
					c-25.834,9.037-28.671,24.793-23.768,37.296c2.675,6.821,5.751,11.94,5.751,11.94
					C119.083,103.008,120.123,102.311,121.397,101.841z"/>
				<path style="opacity:0.15;" d="M121.397,101.841c2.377-12.379,12.805-24.842,32.781-28.177c0.628-0.105,1.243-0.196,1.847-0.275
					c-7.32-0.011-14.668,2.382-21.028,6.122c-2.538,1.492-4.985,3.208-7.769,4.165c-2.784,0.958-6.06,1.047-8.494-0.61
					c-2.864-1.951-3.827-5.757-3.814-9.222c0.008-2.158,0.321-4.311,0.9-6.389c-6.433,7.844-6.361,16.785-3.339,24.492
					c2.675,6.821,5.751,11.94,5.751,11.94C119.083,103.008,120.123,102.311,121.397,101.841z"/>
			</g>
			<g>
				<path style="fill:#263238;" d="M130.504,223.311c3.508-0.422,8.988,1.929,10.517,12.091c1.953,12.98-0.784,23.452-9.608,25.603
					c-9.706,2.365-14.237-13.363-14.128-19.959C117.395,234.449,121.961,224.34,130.504,223.311z"/>
				<g id="Arm_00000078030488000401496120000009101800903591573903_">
					<path style="fill:#C8856A;" d="M98.335,159.752c-13.436,5.173-16.974,10.412-21.009,24.924
						c-4.034,14.512-12.382,53.025-13.269,72.229c5.206,7.115,33.223-15.943,33.223-15.943s8.176-31.359,10.633-41.924
						C110.37,188.475,110.931,163.191,98.335,159.752z"/>
					<path style="fill:#AF6152;" d="M101.592,224.302c-7.66,3.035-21.091,5.602-25.937,13.89l23.735-5.361
						C100.373,229.034,100.363,229.115,101.592,224.302z"/>
					<path style="fill:#AF6152;" d="M147.88,231c3.091-0.765,12.575-11.716,13.984-14.523c1.409-2.807,3.683-6.033,5.854-8.537
						c2.171-2.504,3.129-5.606,2.239-6.906c-0.89-1.3-1.952-1.948-3.666-0.452c-1.714,1.496-3.481,3.252-8.051,5.262
						c-4.57,2.01-9.371,4-11.193,9.876C145.225,221.596,147.88,231,147.88,231z"/>
					<g>
						<g>
							<path style="fill:#C8856A;" d="M153.279,212.093c0,0,6.611-0.053,9.185,0.195c2.575,0.248,6.483,2.812,8.625,2.899
								c2.44,0.1,3.986-1.44,3.053-3.2c-0.933-1.759-6.711-5.291-8.735-6.086c-2.024-0.796-4.534-1.506-8.367-1.657
								c-3.833-0.151-8.211-0.588-9.613,0.129c-1.727,0.883-3.196,3.809-4.003,5.386c-0.787,1.538-3.937,6.899-5.735,9.878
								c-1.474,2.441-2.147,3.754-5.366,4.55c-3.872,0.958-19.895,3.987-29.867,5.552c-7.401,1.161-19.001,2.659-26.593,8.156
								c-7.593,5.496-10.348,9.62-11.637,17.428c-0.729,4.418-0.159,14.397,24.289,11.437c12.891-1.561,24.763-8.745,33.063-13.446
								c9.376-5.311,17.494-9.513,19.952-9.958c3.459-0.625,7.342-1.776,9.701-4.808c3.055-3.926,4.512-5.703,9.027-6.708
								c2.464-0.548,4.468-0.626,6.616-1.54c2.148-0.914,3.381-2.285,3.232-3.482c-0.148-1.196-1.696-1.153-1.696-1.153
								s0.309-0.367,0.417-1.307c0.109-0.94-0.081-1.88-0.081-1.88s0.82,0.124,1.765-0.057c0.945-0.182,1.637-1.903,1.746-2.843
								c0.109-0.94-1.998-2.86-3.245-3.392c-1.247-0.533-4.996-2.34-6.154-2.651C161.703,213.226,153.279,212.093,153.279,212.093z"
								/>
							<path style="fill:#AF6152;" d="M170.514,222.423c0.41-0.079,0.767-0.453,1.055-0.922c-0.012,0.006-0.785,0.354-2.646,0.091
								c-1.876-0.266-6.826-2.035-9.942-2.185c-3.116-0.15-6.569,0.064-7.893-0.601c0.876,0.629,4.278,1.173,7.927,1.479
								c3.649,0.305,9.734,2.196,9.734,2.196S169.569,222.604,170.514,222.423z"/>
							<path style="fill:#AF6152;" d="M164.708,226.316c-1.158,0.153-6.449-0.209-8.393-0.289c-1.943-0.08-5.115-0.488-5.115-0.488
								s2.361,0.822,4.177,0.972c1.816,0.15,7.114,0.5,9.151,0.359c2.037-0.141,3.135-0.661,3.883-1.203
								c0,0,0.308-0.367,0.417-1.307C167.978,225.752,165.867,226.163,164.708,226.316z"/>
						</g>
					</g>
				</g>
				<path style="fill:#37474F;" d="M109.905,198.253c-1.924,7.713-7.044,28.399-7.044,28.399l27.643-3.341
					c-3.708,0.448-10.753,6.87-10.404,20.02c0.465,17.518,11.313,17.673,11.313,17.673s-23.65,5.935-36.083,8.063
					c-8.559,1.465-22.348,1.881-26.235,0c-3.887-1.881-7.773-3.949-6.151-18.377c1.622-14.428,7.123-44.357,12.711-65.734
					c5.588-21.377,11.747-24.504,25.022-30.197C113.501,160.475,112.331,188.531,109.905,198.253z"/>
				<path style="fill:#263238;" d="M102.861,226.652c-12.364,3.075-21.373,10.544-23.413,20.068
					c0-11.554,8.842-20.549,24.565-24.721L102.861,226.652z"/>
			</g>
		</g>
	</g>
</g>
<g id="Speech_Bubble_2">
	<g id="Speech_Bubble_11_">
		<g id="Speech_Bubble_00000010308358359051276230000012255497674708306588_">
			<g>
				<path style="fill:#BA68C8;" d="M75.859,124.744l0.023-18.631l15.67-1.652c0.341-0.036,0.647,0.04,0.9,0.188
					c0.758,0.446,7.964,4.616,8.214,4.76c0.766,0.441,1.048,1.554,0.336,2.304l-16.918,17.797L75.859,124.744z"/>
			</g>
			<g>
				<path id="XMLID_5443_" style="fill:#BA68C8;" d="M26.705,162.155l-0.001-41.953c0-0.837,0.588-1.855,1.313-2.274L75.029,90.84
					c0.725-0.419,1.897-0.413,2.618,0.013l7.311,4.318c0.721,0.426,1.306,1.45,1.306,2.287l0.002,41.953
					c0,0.837-0.588,1.855-1.313,2.274l-47.013,27.088c-0.725,0.419-1.898,0.413-2.619-0.013l-7.311-4.318
					C27.289,164.017,26.705,162.993,26.705,162.155z"/>
				<path id="XMLID_5442_" style="opacity:0.15;" d="M37.724,168.877c-0.624,0.241-1.099-0.108-1.101-0.863l0.003-41.95
					c0.002-0.421,0.148-0.884,0.387-1.295l-9.953-5.815c-0.223,0.402-0.36,0.845-0.357,1.25l0,41.955
					c-0.001,0.834,0.582,1.856,1.306,2.285l7.309,4.316C35.974,169.145,37.001,169.189,37.724,168.877z"/>
				<path style="fill:#BA68C8;" d="M99.777,109.228l-13.512,1.424l-0.001-13.194c0-0.837-0.588-1.177-1.313-0.758l-47.013,27.088
					c-0.725,0.419-1.313,1.437-1.313,2.274l0.002,41.953c0,0.837,0.588,1.177,1.313,0.758l47.013-27.088
					c0.725-0.419,1.313-1.437,1.313-2.274l-0.001-12.195l14.737-15.503C101.948,110.718,101.142,109.084,99.777,109.228z"/>
				<path style="opacity:0.35;fill:#FFFFFF;" d="M99.777,109.228l-13.512,1.424l-0.001-13.194c0-0.837-0.588-1.177-1.313-0.758
					l-47.013,27.088c-0.725,0.419-1.313,1.437-1.313,2.274l0.002,41.953c0,0.837,0.588,1.177,1.313,0.758l47.013-27.088
					c0.725-0.419,1.313-1.437,1.313-2.274l-0.001-12.195l14.737-15.503C101.948,110.718,101.142,109.084,99.777,109.228z"/>
			</g>
		</g>
		<path style="fill:#FFFFFF;" d="M47.285,135.895c-1.791,1.034-3.243,3.808-3.243,6.195c0,2.388,1.452,3.485,3.243,2.451
			c1.791-1.034,3.243-3.808,3.243-6.195S49.076,134.861,47.285,135.895z M62.471,127.127c-1.791,1.034-3.243,3.808-3.243,6.195
			c0,2.388,1.452,3.485,3.243,2.451c1.791-1.034,3.242-3.808,3.242-6.195C65.713,127.191,64.261,126.093,62.471,127.127z
			 M77.656,118.36c-1.791,1.034-3.243,3.808-3.243,6.195c0,2.388,1.452,3.485,3.243,2.451s3.243-3.808,3.243-6.195
			C80.898,118.424,79.447,117.326,77.656,118.36z"/>
	</g>
</g>
<g id="Plants">
	<g id="Plants_00000137833607242060916350000011337117835226452913_">
		<g id="XMLID_00000111193256558583937510000014842584643172218503_">
			<g id="XMLID_00000007387103854230134580000000377442319842125709_">
				<path id="XMLID_00000146471611150495449010000005454088020873799083_" style="fill:#BA68C8;" d="M44.431,392.134l-10.319-5.963
					c0,0-6.142-25.519-3.694-48.481c3.441-32.284,24.692-44.431,32.772-41.647c8.081,2.784,10.421,12.178-2.95,31.406
					C52.352,338.794,42.661,362.423,44.431,392.134z"/>
			</g>
			<g id="XMLID_00000160908022837976032870000006183183805609906098_" style="opacity:0.65;">
				<path id="XMLID_00000114778939167566710160000013779250433342871432_" style="fill:#FFFFFF;" d="M44.431,392.134l-10.319-5.963
					c0,0-6.142-25.519-3.694-48.481c3.441-32.284,24.692-44.431,32.772-41.647c8.081,2.784,10.421,12.178-2.95,31.406
					C52.352,338.794,42.661,362.423,44.431,392.134z"/>
			</g>
			<g id="XMLID_00000044870987080756037210000010168459549001887105_">
				<path id="XMLID_00000133494207090711498510000000831606696187368070_" style="fill:#FFFFFF;" d="M40.155,379.597
					c0.033-0.002,0.065-0.006,0.099-0.012c0.388-0.074,0.644-0.448,0.569-0.836c-5.656-29.777,4.746-63.237,17.627-77.161
					c0.268-0.289,0.251-0.743-0.04-1.011c-0.291-0.265-0.743-0.251-1.011,0.04c-13.116,14.177-23.721,48.184-17.981,78.399
					C39.485,379.37,39.805,379.615,40.155,379.597z"/>
			</g>
		</g>
		<g id="XMLID_00000168814648595682796260000009685971844774983591_">
			<g id="XMLID_00000023239403745469611710000015274866553443721905_">
				<path id="XMLID_00000051367221144944299640000004525930475673199784_" style="fill:#BA68C8;" d="M70.401,407.128
					c1.541,0.785,5.641-2.724,6.784-3.578c1.956-1.461,3.5-3.467,4.48-5.698c1.14-2.596,1.323-5.326,0.785-8.107
					c-0.279-1.442-0.757-2.838-1.234-4.228c-0.468-1.364-0.936-2.729-1.403-4.093c-0.462-1.346-0.929-2.739-0.82-4.158
					c0.22-2.859,2.641-4.976,4.847-6.808c2.439-2.026,4.952-4.664,4.765-8.083c-0.144-2.638-1.634-5.02-3.374-7.008
					c-1.74-1.988-3.772-3.72-5.36-5.831c-1.143-1.52-2.067-3.327-1.989-5.227c0.048-1.181,0.48-2.313,0.99-3.378
					c1.095-2.287,2.585-4.407,3.298-6.841c0.712-2.434,0.444-5.403-1.51-7.021c-1.603-1.328-3.891-1.409-5.958-1.167
					c-1.913,0.224-3.744,1.184-5.376,2.202c-5.277,3.292-8.051,9.879-13.695,12.492c-2.177,1.008-4.602,1.327-6.887,2.056
					c-2.286,0.729-4.588,2.031-5.552,4.228c-1.902,4.331,2.285,9.338,1.025,13.897c-1.115,4.034-4.894,5.747-6.879,9.432
					c-0.868,1.612-0.995,3.431-0.751,5.245c0.414,3.071,0.98,5.312,2.633,8.667c1.366,2.773,5.213,8.014,5.213,8.014
					S70.165,407.007,70.401,407.128z"/>
			</g>
			<g id="XMLID_00000028325821952535377800000015202965865402827650_" style="opacity:0.3;">
				<path id="XMLID_00000128478612901776395260000010153784134171158144_" style="fill:#FFFFFF;" d="M70.401,407.128
					c1.541,0.785,5.641-2.724,6.784-3.578c1.956-1.461,3.5-3.467,4.48-5.698c1.14-2.596,1.323-5.326,0.785-8.107
					c-0.279-1.442-0.757-2.838-1.234-4.228c-0.468-1.364-0.936-2.729-1.403-4.093c-0.462-1.346-0.929-2.739-0.82-4.158
					c0.22-2.859,2.641-4.976,4.847-6.808c2.439-2.026,4.952-4.664,4.765-8.083c-0.144-2.638-1.634-5.02-3.374-7.008
					c-1.74-1.988-3.772-3.72-5.36-5.831c-1.143-1.52-2.067-3.327-1.989-5.227c0.048-1.181,0.48-2.313,0.99-3.378
					c1.095-2.287,2.585-4.407,3.298-6.841c0.712-2.434,0.444-5.403-1.51-7.021c-1.603-1.328-3.891-1.409-5.958-1.167
					c-1.913,0.224-3.744,1.184-5.376,2.202c-5.277,3.292-8.051,9.879-13.695,12.492c-2.177,1.008-4.602,1.327-6.887,2.056
					c-2.286,0.729-4.588,2.031-5.552,4.228c-1.902,4.331,2.285,9.338,1.025,13.897c-1.115,4.034-4.894,5.747-6.879,9.432
					c-0.868,1.612-0.995,3.431-0.751,5.245c0.414,3.071,0.98,5.312,2.633,8.667c1.366,2.773,5.213,8.014,5.213,8.014
					S70.165,407.007,70.401,407.128z"/>
			</g>
			<g id="XMLID_00000164471493944189315810000017549375264547471004_">
				<path id="XMLID_00000168811309222759153270000014833867528995356326_" style="fill:#FFFFFF;" d="M55.465,399.343
					c0.009-0.001,0.018-0.001,0.018-0.001c0.382-0.035,0.655-0.366,0.622-0.737c-2.471-26.783,8.681-57.051,17.442-66.123
					c0.259-0.269,0.252-0.697-0.017-0.957c-0.27-0.259-0.697-0.251-0.957,0.016c-8.938,9.255-20.322,40.028-17.818,67.187
					C54.79,399.092,55.104,399.361,55.465,399.343z"/>
			</g>
			<g id="XMLID_00000085954513740817527100000009405219498259893888_">
				<path id="XMLID_00000099634260591253044150000016137458131397268131_" style="fill:#FFFFFF;" d="M58.125,366.32
					c0.066-0.004,0.133-0.016,0.198-0.04c8.488-3.101,19.212-4.113,19.319-4.122c0.373-0.035,0.646-0.365,0.613-0.736
					c-0.035-0.371-0.332-0.652-0.737-0.613c-0.109,0.011-11.003,1.038-19.659,4.2c-0.351,0.128-0.533,0.516-0.404,0.867
					C57.56,366.161,57.836,366.334,58.125,366.32z"/>
			</g>
		</g>
	</g>
</g>
<g id="Character_2">
	<g id="Character_11_">
		<g id="Arm_00000157276269337586582110000003384105086359886991_">
			<path id="Arm_00000163783112332846079810000000689466613859002267_" style="fill:#FFA8A7;" d="M460.923,214.587
				c0-0.001-7.072-17.985-7.072-17.985l1.094-22.124c4.489,0.371,7.637,2.001,10.007,7.555c2.37,5.553,7.118,23.441,8.025,27.606
				c0.888,4.684,1.027,6.502,0.817,11.029c-0.218,4.717-2.288,13.244-3.069,17.885c-0.361,2.147-0.553,4.222-0.765,6.408
				c-0.221,2.279-1.027,4.411-1.559,6.64c-0.246,1.029-0.873,2.024-1.615,2.775c-0.488,0.494-1.191,0.599-1.655,1.064
				c-0.48,0.481-0.525,1.205-1.188,1.607c-0.737,0.447-1.639,0.279-2.279,0.729c-0.669,0.472-1.212,1.122-1.964,1.526
				c-0.678,0.364-1.188,0.529-1.674,1.161c-0.399,0.518-0.735,1.629-1.533,1.616c-0.895-0.015-1.108-0.862-1.215-1.601
				c-0.189-1.302,0.386-3.014,1.082-4.112c0.807-1.272,1.307-2.715,2.26-3.89c0.863-1.064,1.292-2.566,1.584-3.909
				c0.204-0.939,0.022-2.106-1.117-1.473c-1.343,0.746-2.709,2.197-4.405,2.047c-1.173-0.104-1.312-1.01-0.7-1.827
				c1.026-1.369,1.889-2.734,2.71-4.248c0.817-1.507,1.465-3.087,2.323-4.567c0.446-0.769,0.994-1.511,1.543-2.22
				c1.535-1.984,1.263-4.498,1.262-6.853C461.822,226.139,461.219,218.786,460.923,214.587z"/>
			<path style="fill:#37474F;" d="M454.812,173.24c6.529,0.568,9.776,4.716,11.989,11.26c2.269,6.706,5.595,18.736,6.267,21.927
				c0.671,3.191,1.557,6.927,1.372,11.772c-0.18,4.709-3.304,21.312-3.304,21.312s-2.586,1.901-6.418,0.317
				c-4.736-1.957-4.237-4.05-4.237-4.05l-0.029-21.113l-7.141-17.831L454.812,173.24z"/>
			<path style="fill:#BA68C8;" d="M471.924,235.195c-0.076,0.024-0.151,0.053-0.229,0.074c-0.708,0.189-1.433,0.295-2.164,0.338
				c-1.437,0.083-2.896-0.102-4.276-0.509c-1.359-0.401-2.661-1.001-3.854-1.766c-0.315-0.202-0.621-0.416-0.925-0.633l0.001,1.092
				c0.558,0.398,1.062,0.716,1.215,0.807c1.284,0.76,2.667,1.305,4.12,1.642c1.389,0.322,2.843,0.439,4.264,0.311
				c0.517-0.046,1.082-0.131,1.647-0.245C471.788,235.956,471.855,235.584,471.924,235.195z"/>
		</g>
		<g id="Bottom_00000170259812862354074720000011860007132670042265_">
			<g>
				<path style="fill:#263238;" d="M463.002,355.119c0,1.24,0.242,1.721-1.355,2.841c-1.597,1.121-5.06,1.637-7.692,0.961
					c-2.306-0.592-3.142-1.222-4.252-2.444c-1.261-1.388-2.007-2.985-2.469-3.545c-0.462-0.56-2.604-1.63-4.669-2.505
					c-2.174-0.921-6.344-2.753-7.838-6.115c-1.493-3.362-0.463-5.767-0.463-5.767L463.002,355.119z"/>
				<path style="fill:#37474F;" d="M449.099,338.06c4.213,2.621,7.757,9.198,13.519,7.2c0.289,3.22,1.187,6.693,0.384,9.859
					c-2.458,2.887-7.836,3.443-10.931,1.363c-1.559-1.263-2.432-2.747-3.94-4.083c-1.193-1.057-2.582-1.718-4.142-2.404
					c-1.428-0.628-3.85-1.883-5.012-2.643C429.664,340.815,434.286,328.844,449.099,338.06z"/>
			</g>
			<g id="XMLID_1154_">
				<path style="fill:#263238;" d="M434.247,370.196c0,1.344-0.093,2.355-0.957,2.925c-0.863,0.569-7.323,1.581-9.041,1.771
					c-1.718,0.19-1.967-0.885-3.171-0.506c-1.204,0.379-4.012,2.34-8.22,3.225c-4.208,0.885-7.661,1.834-13.506,0
					c-5.844-1.834-6.422-3.988-6.344-5.87C393.085,369.858,434.247,370.196,434.247,370.196z"/>
				<path id="XMLID_1155_" style="fill:#37474F;" d="M433.402,357.635c0.942,3.855,1.942,9.626,0.845,12.56
					c-1.176,1.112-5.125,1.766-8.568,2.207c-3.233,0.414-6.173,1.223-9.109,2.702c-6.682,2.655-18.43,3.621-23.112-2.367
					c-4.673-7.995,19.65-6.029,22.634-15.28C417.178,354.089,428.985,358.545,433.402,357.635z"/>
			</g>
			<g id="XMLID_00000046324673385524109420000007490407692136357278_">
				<g id="XMLID_00000127741724150990169770000001345284226044773538_">
					<path style="fill:#EBEBEB;" d="M463.753,311.795c-1.732-34,0.815-58.769-2.286-85.232c0,0-51.057-1.318-52.249,14.359
						c0,0,0.813,46.619,1.624,63.521c0.875,18.228,2.932,46.482,3.342,55.695c6.007,7.219,20.882,4.165,20.882,4.165
						c-0.076-6.366,1.855-30.809,1.581-49.874c0,0.001,1.52-18.69,2.104-23.983c0,0,4.299,40.476,5.693,53.207
						c3.104,7.087,17.356,7.989,19.039,4.957C463.484,348.612,464.249,321.525,463.753,311.795z"/>
					<path style="fill:#E0E0E0;" d="M458.592,227.517c0.836,0,1.513,0.006,1.997,0.012c1.652,14.658,1.594,29.121,1.533,44.416
						c-0.05,12.368-0.101,25.157,0.65,39.9c0.46,9.03-0.18,33.434-0.262,36.437c-0.443,0.442-1.843,0.99-4.402,0.99
						c-4.979,0-10.903-2.019-12.706-5.879c-1.396-12.757-5.633-52.646-5.676-53.049l-0.958-9.016l-0.994,9.012
						c-0.552,5.008-1.942,21.989-2.106,23.999c0,0.006-0.001,0.013-0.001,0.019l-0.003,0.038l0,0.047
						c0.174,12.132-0.547,26.451-1.074,36.906c-0.267,5.299-0.484,9.605-0.508,12.129c-1.149,0.183-3.443,0.484-6.107,0.484
						c-4.163,0-9.721-0.738-12.829-4.209c-0.192-4.139-0.678-11.681-1.239-20.378c-0.749-11.609-1.597-24.767-2.088-34.98
						c-0.79-16.457-1.592-61.714-1.622-63.444C411.024,231.047,435.725,227.517,458.592,227.517 M458.592,226.536
						c-10.792,0-48.355,0.965-49.375,14.387c0,0,0.812,46.619,1.624,63.521c0.875,18.228,2.932,46.482,3.342,55.695
						c3.254,3.91,9.11,4.807,13.794,4.807c3.964,0,7.088-0.642,7.088-0.642c-0.076-6.366,1.855-30.81,1.581-49.874l0,0
						c0,0.001,0-0.001,0,0c0,0.001,1.52-18.69,2.104-23.983c0,0,4.299,40.476,5.693,53.207c2.017,4.604,8.741,6.598,13.665,6.598
						c2.655,0,4.785-0.579,5.375-1.641c0,0,0.765-27.086,0.269-36.817c-1.732-34,0.815-58.769-2.286-85.232
						C461.466,226.563,460.407,226.536,458.592,226.536L458.592,226.536z"/>
				</g>
				<g>
					<path style="fill:#E0E0E0;" d="M438.751,290.448l0.005-9l1.872-18.966c0,0,9.129-1.601,14.415-7.892
						c-1.442,5.033-7.177,9.402-10.811,10.63l-2.914,21.75l0.49,22.932L438.751,290.448z"/>
				</g>
				<path style="fill:#263238;" d="M419.17,258.838c-4.267-4.096-3.676-12.67-3.297-18.013c0.031-0.447,0.062-0.871,0.087-1.269
					l-0.779-0.045c-0.025,0.396-0.056,0.819-0.087,1.264c-0.404,5.698-1.06,14.981,4.076,19.099V258.838z"/>
			</g>
		</g>
		<g id="Top_00000059997737033882736000000018265246009801386388_">
			<g>
				<polygon id="XMLID_00000150798115299482915310000010204022316110481585_" style="fill:#FFA8A7;" points="427.659,170.032 
					429.496,181.14 445.8,179.331 443.112,167.453 				"/>
				<g id="XMLID_00000052075243818214400220000008242856586195320962_">
					<g id="XMLID_00000177455493656317596470000016114858063709690301_">
						<path id="XMLID_00000000937036789064696760000003301608498398135981_" style="fill:#F28F8F;" d="M420.376,150.921
							c-1.031,1.596-4.254,6.424-4.313,7.297l3.142,1.543L420.376,150.921z"/>
					</g>
					<g id="XMLID_00000026878844273720109820000014164343141339897474_">
						<path id="XMLID_5819_" style="fill:#FFA8A7;" d="M427.789,138.863c-4.751-0.067-7.49,3.551-7.925,13.689
							c-0.017,0.397-0.54,1.067-0.84,2.606c-1.286,6.601,0.338,12.619,1.576,14.145c2.929,1.937,6.035,2.472,10.389,1.69
							c3.319-0.596,11.754-2.407,15.66-7.326c4.593-5.788,6.416-14.034,2.415-17.852C443.433,140.441,430.406,138.9,427.789,138.863
							z"/>
					</g>
					<path style="fill:#F28F8F;" d="M420.6,169.303c0.686,0.844,4.25,2.46,7.48,2.159l-0.458-1.731
						C427.622,169.731,424.413,170.119,420.6,169.303z"/>
				</g>
				<g id="XMLID_456_">
					<g id="XMLID_816_">
						<g id="XMLID_817_">
							<path id="XMLID_00000054257232651370214080000008868685104518747071_" style="fill:#263238;" d="M428.657,156.809
								c0.356,0.735,1.152,0.714,1.558,0.111c0.487-0.724,0.85-1.489,1.495-2.099c0.746-0.705,1.723-1.207,2.75-1.224
								c3.883-0.066,3.416,5.101,1.688,7.045c-2.828,3.181-4.708,0.836-4.708,0.836s-1.765,5.12,1.743,7.689
								c0,0,5.974,0.966,10.241-0.808c2.959-3.849,4.798-5.358,6.725-8.612c4.564-7.709,4.405-16.831,0.856-18.56
								c-0.05-2.581-1.796-6.302-7.265-8.036c-5.212-1.652-8.548-1.13-12.154-0.59c-3.607,0.539-7.909,2.609-11.535,0.11
								c-0.656,2.095-0.214,4.502,1.143,6.228c-1.115-0.381-2.476,0.266-2.884,1.371c-0.409,1.105,0.205,2.481,1.299,2.917
								c-0.707,0.437-0.961,1.439-0.623,2.198c0.339,0.759,1.184,1.233,2.015,1.216c0.88-0.017,1.417-0.152,2.265-0.358
								c1.333,2.863,4.772,3.587,6.745,3.277C428.006,152.444,428.012,155.475,428.657,156.809z"/>
						</g>
					</g>
				</g>
			</g>
			<path style="fill:#37474F;" d="M424.547,180.235c3.419-3.077,2.566-4.274,3.499-6.099c2.76-2.269,15.483-5.038,16.452-4.053
				c1.843,1.872,4.024,3.619,4.024,3.619s-0.574,1.854-7.864,3.618C433.705,179.003,430.957,178.769,424.547,180.235z"/>
			<g>
				<path style="fill:#455A64;" d="M446.33,172.292c-4.012,0.672-11.25,2.622-15.059,3.661c-3.809,1.039-9.023,4.49-9.023,4.49
					s-7.315,3.182-8.217,4.184c-0.902,1.002-4.065,7.377-4.8,17.4c-0.736,10.023,0.074,58.526,0.074,58.526
					s12.042,7.982,33.633,4.169c11.596-2.048,20.369-11.73,20.369-11.73s-0.753-30.701-0.753-34.836
					c0-11.948,0.913-21.163,0.512-27.978c-0.401-6.816-4.722-16.314-8.931-16.938C449.011,172.48,446.33,172.292,446.33,172.292z"/>
			</g>
			<g id="Arm_00000173873546277997466760000007231583199483113353_">
				<path style="fill:#FFA8A7;" d="M415.74,252.421c-0.268,1.814,0.1,3.392,0.049,4.199c-0.085,1.346-0.375,2.769-0.983,3.961
					c-0.57,1.117-1.441,2.031-2.003,3.154c-1.187,2.374-1.254,5.173-1.457,7.857c-0.073,0.97-0.185,1.941-0.896,2.63
					c-0.277,0.269-0.677,0.488-1.031,0.329c-0.292-0.131-0.438-0.467-0.558-0.774c-0.003,0.506-0.057,1.01-0.16,1.503
					c-0.088,0.419-0.221,0.846-0.508,1.149c-0.288,0.304-0.767,0.446-1.126,0.227c-0.335-0.204-0.464-0.633-0.565-1.022
					c-0.044,1.054-0.15,2.243-0.941,2.889c-0.269,0.22-0.623,0.356-0.961,0.28c-0.542-0.123-0.58-0.618-0.673-1.08
					c-0.133-0.657-0.322-1.304-0.466-1.959c-0.281-1.275-0.51-2.565-0.597-3.868c-0.044-0.652-0.109-1.411-0.12-2.078
					c-0.028-1.74-0.044-2.957-0.044-2.957s-0.442,2.252-0.581,3.983c-0.114,1.421-0.074,2.895-0.376,4.296
					c-0.13,0.603-1.048,2.029-1.633,1.057c-0.073-0.122-0.099-0.266-0.123-0.407c-0.191-1.105-0.381-2.209-0.572-3.314
					c-0.125-0.722-0.25-1.447-0.277-2.179c-0.029-0.78,0.052-1.557,0.134-2.33c0.126-1.196,0.252-2.391,0.398-3.584
					c0.152-1.238,0.33-2.489,0.801-3.631c0.681-1.651,1.636-3.202,2.428-4.796c0.869-1.749,1.31-1.902,2.243-5.377
					c1.165-4.341,0.991-6.366,1.366-11.154c0.347-4.429,0.803-12.19,1.115-15.657c0,0,0.076-13.109-0.148-18.803
					c-0.273-6.917-1.548-15.761,7.16-19.846c0.958,0.15,1.818,0.62,2.581,1.571c2.032,2.523,3.083,8.509,3.399,12.902
					c0.748,10.423,0.505,18.573,0.455,24.342c-0.02,2.291-0.753,9.834-1.313,12.03C418.342,241.5,416.009,250.607,415.74,252.421z"
					/>
				<path style="fill:#F28F8F;" d="M402.7,266.861l-0.165-4.04c0,0-0.535,3.437-0.559,5.572c-0.01,0.85,0.064,1.656,0.155,2.323
					C402.28,269.004,402.7,266.861,402.7,266.861z"/>
				<path style="fill:#F28F8F;" d="M405.498,263.938c-0.092-0.153-0.197,0.015-0.154,0.137c0.645,1.813,0.29,3.842,0.354,5.722
					c0.033,0.979-0.012,1.832,0.139,3.003c0.115,0.898,0.288,2.065,0.583,2.929c0.052,0.151,0.07-0.176,0.052-0.337
					c-0.139-1.295-0.265-1.843-0.304-2.778c-0.044-1.06-0.101-2.122-0.093-3.183C406.089,267.631,406.483,265.563,405.498,263.938z"
					/>
				<path style="fill:#F28F8F;" d="M408.386,263.643c-0.064-0.177-0.195,0.004-0.159,0.134c0.382,1.403,0.181,2.769,0.141,3.661
					c-0.046,1.026-0.087,1.92,0.016,3.157c0.079,0.949,0.203,2.182,0.463,3.105c0.046,0.161,0.077-0.18,0.066-0.35
					c-0.086-1.366-0.189-1.948-0.19-2.931c-0.001-1.114-0.014-2.231,0.038-3.343C408.847,265.19,408.699,264.5,408.386,263.643z"/>
				<g>
					<path style="fill:#37474F;" d="M416.058,183.357c-5.829,2.461-9.471,4.419-10.298,12.257
						c-0.827,7.838,0.147,28.847,0.147,28.847l-1.899,25.232c0,0,0.764,2.484,5.222,3.566c4.544,1.103,7.693-0.971,7.693-0.971
						s3.889-16.929,4.737-22.186c0.848-5.256,0.77-10.275,0.613-19.127c-0.156-8.851-0.192-15.735-1.448-20.335
						C419.571,186.041,417.777,184.083,416.058,183.357z"/>
				</g>
				<path style="fill:#BA68C8;" d="M410.98,248.422c-1.414-0.231-2.823-0.655-4.085-1.342c-1.082-0.59-1.872-1.327-2.521-2.257
					l-0.102,1.364c0.465,0.529,1.018,0.988,1.565,1.35c1.372,0.911,2.981,1.487,4.594,1.791c2.459,0.464,5.056,0.297,7.324-0.701
					c0.094-0.418,0.193-0.859,0.298-1.324C415.945,248.528,413.383,248.814,410.98,248.422z"/>
				<path style="fill:#BA68C8;" d="M410.98,248.422c-1.414-0.231-2.823-0.655-4.085-1.342c-1.082-0.59-1.872-1.327-2.521-2.257
					l-0.102,1.364c0.465,0.529,1.018,0.988,1.565,1.35c1.372,0.911,2.981,1.487,4.594,1.791c2.459,0.464,5.056,0.297,7.324-0.701
					c0.094-0.418,0.193-0.859,0.298-1.324C415.945,248.528,413.383,248.814,410.98,248.422z"/>
			</g>
			<g>
				<path style="fill:#BA68C8;" d="M405.44,202.681c8.534-0.563,16.933,2.641,26.063,11.001
					c6.647,6.086,13.325,18.201,16.043,16.379c4.938-3.309,9.474-21.548,12.42-26.953c3.424-6.283,9.24-10.921,9.24-10.921
					s-1.01-6.451-3.006-11.334c-1.996-4.883-4.431-7.959-10.795-8.672c-6.365-0.714-7.892-0.452-16.363,1.418
					c-8.471,1.87-10.395,3.08-15.73,4.985c-4.024,1.437-13.467,5.169-16.047,9.191C404.684,191.796,405.44,202.681,405.44,202.681z"
					/>
				<path style="opacity:0.3;fill:#FFFFFF;" d="M468.7,189.501c-0.073-0.349-0.151-0.715-0.24-1.109
					c-9.576,7.435-13.64,19.129-18.09,30.004c-0.66,1.613-1.343,3.218-2.093,4.791c-0.172,0.361-0.333,0.759-0.599,1.064
					c-0.368,0.423-0.7,0.37-1.111,0.033c-0.661-0.544-1.201-1.281-1.72-1.957c-1.981-2.58-3.862-5.196-6.069-7.595
					c-4.311-4.687-9.348-8.77-15.087-11.577c-3.339-1.633-6.885-2.841-10.546-3.499c-1.834-0.33-3.707-0.536-5.572-0.55
					c-0.746-0.005-1.492,0.023-2.237,0.072c0,0.252,0.002,0.495,0.005,0.727c0.252-0.006,0.504-0.016,0.756-0.018
					c0.907-0.006,1.815,0.026,2.72,0.082c1.595,0.099,3.186,0.315,4.751,0.632c3.33,0.674,6.567,1.797,9.615,3.292
					c5.765,2.829,10.82,6.966,15.1,11.727c1.091,1.213,2.138,2.466,3.14,3.753c0.993,1.275,1.903,2.616,2.921,3.872
					c0.755,0.932,1.972,2.662,3.405,2.152c0.546-0.194,0.889-0.659,1.15-1.153c0.405-0.766,0.746-1.572,1.098-2.363
					c2.876-6.454,5.142-12.486,8.239-18.844C460.739,197.902,464.217,193.121,468.7,189.501z"/>
			</g>
		</g>
	</g>
</g>
<g id="Character_1">
	<g id="Character_00000047751151165220534790000006481447641843556519_">
		<g id="Bottom_9_">
			<g id="XMLID_00000079464079284842920640000001921181737304662942_">
				<g>
					<path style="fill:#37474F;" d="M303.895,418.281c-0.608-0.124-0.738,1.707-0.611,2.513c0.127,0.806,2.339,3.705,6.689,5.123
						c4.349,1.417,10.59,1.263,13.24,1.447c2.65,0.184,6.53,1.9,9.074,2.728c5.908,1.923,9.536,0.109,11.26-1.203
						c0.676-0.515,0.827-1.364,0.886-2.104c0.141-1.755,0.019-2.125-0.186-2.133L303.895,418.281z"/>
					<g id="XMLID_00000177483885882616754900000006566018624585624192_">
						<g id="XMLID_00000180347045518491410460000006079525757734484108_">
							<path id="XMLID_00000098182384763190531760000005199712946767124364_" style="fill:#455A64;" d="M344.059,418.961
								c0.248,1.213,0.454,2.493,0.565,3.726c0.135,1.508,0.215,3.431-0.913,4.496c-1.903,1.797-4.037,2.101-6.247,2.097
								c-2.65-0.005-5.199-0.595-7.633-1.686c-2.225-0.997-3.999-1.862-6.492-1.995c-2.74-0.146-6.541-0.08-9.228-0.66
								c-2.295-0.495-4.546-1.015-6.582-2.196c-1.72-0.998-2.746-2.189-3.665-4.136c0.243-3.421,2.157-4.856,4.156-5.721
								c2.112-0.914,4.719-0.92,7.002-0.64c2.569,0.316,4.47,0.882,6.769,0.985c1.557,0.07,3.194,0.021,4.661-0.562
								c0.699-0.278,1.287-1.236,1.666-1.864c0.462-0.765,0.677-1.471,1.416-1.461c0,0,12.029,1.339,13.115,1.522
								c1.236,0.207,0.891,1.88,0.844,2.783c-0.041,0.781-0.015,0.799-0.053,1.58c-0.037,0.766,0.191,1.871,0.37,2.614
								C343.899,418.212,343.982,418.586,344.059,418.961z"/>
						</g>
					</g>
					<path style="fill:#FAFAFA;" d="M319.854,412.554c-0.161-0.12-0.342-0.215-0.536-0.268c-1.025-0.279-1.942,0.654-2.479,1.407
						c-0.329,0.462-0.523,0.972-0.727,1.498c-0.249,0.642-0.411,1.343-0.275,2.031c0.034,0.174,0.142,0.384,0.318,0.362
						c0.16-0.02,0.224-0.214,0.258-0.372c0.202-0.941,0.578-1.843,1.103-2.65c0.233-0.358,0.407-0.664,0.755-0.926
						c0.332-0.25,0.71-0.438,1.115-0.533c0.164-0.039,0.863,0.043,0.731-0.281c-0.025-0.062-0.074-0.111-0.124-0.155
						C319.947,412.626,319.9,412.589,319.854,412.554z"/>
					<path style="fill:#FAFAFA;" d="M322.872,412.907c-0.476-0.103-1.004-0.03-1.428,0.227c-0.501,0.303-0.721,0.784-0.98,1.282
						c-0.505,0.971-0.977,2.437-0.486,3.499c0.158,0.341,0.455,0.206,0.598-0.068c0.159-0.304,0.171-0.737,0.25-1.069
						c0.192-0.785,0.539-1.534,0.916-2.246c0.149-0.282,0.31-0.561,0.527-0.794c0.146-0.156,0.319-0.292,0.514-0.38
						c0.095-0.043,0.194-0.075,0.298-0.088c0.094-0.011,0.197-0.002,0.29-0.004c0.019-0.148-0.14-0.251-0.281-0.299
						C323.018,412.943,322.945,412.923,322.872,412.907z"/>
					<path style="fill:#FAFAFA;" d="M326.014,412.392c-0.359,0.08-0.698,0.237-0.955,0.496c-0.242,0.244-0.394,0.562-0.521,0.881
						c-0.285,0.718-0.574,1.472-0.678,2.243c-0.073,0.545-0.036,1.119,0.204,1.614c0.095,0.197,0.287,0.404,0.495,0.336
						c0.227-0.074,0.245-0.419,0.286-0.615c0.076-0.362,0.086-0.743,0.131-1.11c0.164-1.353,0.76-2.603,1.681-3.612
						c0.046-0.051,0.096-0.111,0.084-0.178c-0.018-0.101-0.151-0.123-0.253-0.118C326.329,412.336,326.17,412.357,326.014,412.392z"
						/>
					<path style="fill:#FAFAFA;" d="M316.613,412.478c-1.058-0.137-3.458,1.059-4.916,4.196c-1.458,3.137-1.311,7.315-1.311,7.315
						s-3.115-0.557-5.587-3.455c-0.688-0.806-1.08-1.463-1.269-2.033c-0.037-2.168,0.666-3.898,1.669-4.852
						c1.757-1.671,4.274-2.612,8.058-2.388c4.245,0.252,4.483,1.416,4.483,1.416L316.613,412.478z"/>
				</g>
			</g>
			<g>
				<g>
					<path id="XMLID_16854_" style="fill:#455A64;" d="M394.346,396.484c0.36,1.487-0.014,3.042-0.214,4.53
						c-0.202,1.499-0.42,2.97-0.534,4.481c-0.071,0.946-0.163,1.817-0.377,2.73c-0.24,1.025-0.103,2.243-0.128,3.294
						c-0.027,1.152-0.054,2.304-0.07,3.457c-0.006,0.451-0.106,1.032,0.005,1.476c0.119,0.477-7.3,4.73-10.294,6.368
						c-0.173,0.097-0.347,0.173-0.542,0.26c-2.733,1.074-4.86-1.139-4.86-1.139c-2.104-5.576,2.018-9.09,2.018-9.09
						s0.38,0.022,0.304-2.907c0-2.084-0.026-4.202-0.224-6.277c-0.125-1.313-0.664-1.733-1.159-2.943
						c-0.453-1.108-1.319-2.281-1.272-3.522c0.037-0.995,0.869-2.51,1.339-3.316c1.092-1.872,3.492-3.417,5.426-4.284
						c1.101-0.493,2.895-1.034,4.027-0.349c0.61,0.37,0.897,1.087,1.334,1.652c0.517,0.668,1.251,1.125,1.947,1.604
						c1.347,0.926,2.664,2.067,3.174,3.62C394.283,396.245,394.317,396.364,394.346,396.484z"/>
					<path id="XMLID_00000076592033328238611910000000712604670676724918_" style="fill:#FAFAFA;" d="M379.349,412.85
						c-0.369,0.456-0.694,0.922-0.965,1.4h-0.011c-1.323,2.267-1.648,4.838-1.041,7.691c-5.239-0.477-6.617-3.504-6.617-3.504
						s-0.293-2.614,2.723-4.512c0.38-0.239,0.759-0.445,1.139-0.597c0.022-0.011,0.043-0.022,0.054-0.033
						C377.169,412.221,379.349,412.85,379.349,412.85z"/>
					<path id="XMLID_16847_" style="fill:#263238;" d="M395.566,397.303c1.379,0.533,1.024,4.317,0.151,7.96
						c-0.873,3.643-1.343,4.913-0.901,7.942c0.442,3.029,0.696,4.386-0.539,5.498c-1.235,1.111-11.062,5.7-11.062,5.7
						s1.936-4.665,2.194-11.379c0.258-6.714,0.707-11.039,3.822-14.091C392.348,395.88,395.566,397.303,395.566,397.303z"/>
					<path id="XMLID_00000180326931783592206980000006794831937494315706_" style="fill:#37474F;" d="M370.712,418.434
						c0,0,3.816,3.081,8.201,3.58c4.384,0.498,4.603-1.186,5.065-6.383c0.461-5.197,0.64-12.383,2.686-15.547
						c2.046-3.165,5.488-4.567,6.842-4.246c0.278-0.143,1.621,0.86,2.06,1.465c0,0-3.003-0.376-5.741,2.302
						c-2.738,2.677-3.239,8.33-3.364,13.468c-0.125,5.138-0.352,11.092-4.443,11.717c-4.091,0.625-8.44-1.13-11.153-3.392
						C369.303,420.097,370.712,418.434,370.712,418.434z"/>
					<g>
						<path id="XMLID_00000165232246604059835580000015474838630613610682_" style="fill:#FAFAFA;" d="M379.66,410.94
							c0,0-0.547,0.359-0.607,0.951c-0.059,0.592,0.183,1.952,1.487,2.697c0.552,0.316,1.026,0.19,0.136-0.891
							C379.785,412.614,379.66,410.94,379.66,410.94z"/>
						<path id="XMLID_00000161597890127318269740000016887691945533582265_" style="fill:#FAFAFA;" d="M379.573,407.322
							c0,0-0.346,0.317-0.371,0.786c-0.025,0.469,0.84,2.403,1.803,2.832c0.963,0.429,0.444-0.633,0-1.127
							C380.561,409.318,379.573,407.322,379.573,407.322z"/>
						<path id="XMLID_00000019662547169728067630000015087903289649503673_" style="fill:#FAFAFA;" d="M379.335,403.34
							c0,0-0.429,0.223-0.454,0.643c-0.025,0.42,1.952,1.902,2.569,1.852c0.618-0.049,0.766-0.247,0-0.766
							C380.684,404.551,379.335,403.34,379.335,403.34z"/>
					</g>
				</g>
			</g>
			<path id="XMLID_00000178164178500814174600000010095084035636033204_" style="fill:#37474F;" d="M377.659,399.454
				c0,0-7.573-10.457-17.598-29.14c-2.749-5.123-5.115-10.37-5.848-14.141c-0.733-3.771-3.075-11.849-3.075-11.849l-2.505,18.592
				c0.78,4.947,0.555,13.265-1.202,23.299c-2.008,11.466-3.476,28.888-3.476,28.888c-1.034,0.781-5.303,1.468-7.969,1.248
				c-6.671-0.549-8.867-4.163-8.867-4.163s-1.835-22.701-2.362-34.106c-0.94-20.309-1.413-24.706-2.414-48.039
				c-0.846-19.744,1.029-31.962,6.574-49.652c14.443,6.548,34.061,5.315,42.155-1.902c0,0,7.992,14.372,7.73,28.329
				c-0.273,14.607-1.174,42.923-1.174,42.923c2.197,4.86,3.64,8.346,5.218,15.45c1.643,7.393,4.308,16.562,6.125,25.466
				C380.714,390.448,377.659,399.454,377.659,399.454z"/>
			<path style="fill:#37474F;" d="M388.969,390.653c-4.044-0.096-6.847,2.013-8.638,4.199c-0.347,0.414-0.655,0.838-0.925,1.242
				c-1.213,1.801-1.743,3.361-1.743,3.361s-7.579-10.458-17.604-29.141c-2.745-5.123-5.114-10.371-5.845-14.137
				c-0.732-3.775-3.072-11.855-3.072-11.855l-2.514,18.596c0.78,4.94,0.559,13.261-1.194,23.295
				c-2.013,11.469-3.476,28.89-3.476,28.89c-1.04,0.78-5.306,1.464-7.974,1.252c-6.674-0.549-8.869-4.17-8.869-4.17
				s-1.83-22.698-2.359-34.1c-0.944-20.31-1.416-24.711-2.417-48.044c-0.838-19.742,1.031-31.962,6.577-49.652
				c14.445,6.548,34.061,5.316,42.16-1.897c0,0,7.983,14.368,7.723,28.322c-0.27,14.609-1.175,42.931-1.175,42.931
				c2.205,4.853,3.64,8.34,5.219,15.447C384.491,372.587,387.159,381.755,388.969,390.653z"/>
			<path style="fill:#263238;" d="M380.331,394.852c-0.347,0.414-0.655,0.838-0.925,1.242c-2.176-3.823-5.72-10.035-6.317-11.132
				c-1.185-2.176-2.369-4.362-3.544-6.539c-4.16-7.714-8.291-15.495-11.248-23.757c-1.464-4.054-2.581-8.243-3.255-12.5
				c-0.347-2.157-0.578-4.333-0.674-6.51c-0.096-2.118-0.289-4.468,0.328-6.529c0.154-0.51,0.587,0.067,0.616,0.318
				c0.25,1.887,0.125,3.823,0.25,5.72c0.077,1.204,0.193,2.408,0.347,3.611c0.299,2.263,0.742,4.507,1.271,6.731
				c1.965,8.195,5.277,15.986,9.052,23.488c1.878,3.727,3.862,7.396,5.836,11.065c1.059,1.964,2.109,3.929,3.149,5.903
				C375.516,386.532,378.386,391.491,380.331,394.852z"/>
			<path style="fill:#263238;" d="M331.682,303.681c0.793-6.984,2.198-14.059,4.638-20.704c-0.379-0.098-0.756-0.202-1.132-0.309
				c-2.764,6.684-4.279,13.74-5.135,20.923c-3.559-0.817-4.221-5.858-4.104-8.881c0.07-1.802,0.35-3.588,0.661-5.362
				c0.214-1.222,0.526-2.485,0.745-3.751c-1.021,3.546-1.89,6.916-2.598,10.211c0.005,0.136-0.003,0.271,0.004,0.407
				c0.181,3.258,1.607,7.767,5.163,8.588c-0.743,6.813-0.939,13.724-1.083,20.527c-0.384,18.232,0.005,36.477,1.159,54.676
				c0.53,8.358,1.029,27.324,2.127,35.654c0.475,0.143,0.996,0.275,1.584,0.387c-0.542-7.274-1.342-25.05-1.839-32.328
				c-0.615-8.991-1.043-17.995-1.284-27.004c-0.251-9.366-0.306-18.739-0.16-28.108
				C330.558,320.295,330.743,311.951,331.682,303.681z"/>
			<path id="XMLID_00000044870005553908774220000017809766221412802209_" style="fill:#263238;" d="M351.138,344.325l3.958-31.124
				c0,0,5.177,0.353,13.159-6.654c0,0-1.273,5.943-9.848,10.018l-4.812,26.722l0.618,12.888L351.138,344.325z"/>
		</g>
		<g id="Top_00000074438424706044730330000018170238170710568617_">
			<g id="Arm_00000000945562319317191910000007410309381626586773_">
				<path style="fill:#BA68C8;" d="M366.266,230.548c7.747,0.889,9.4,6.099,10.814,14.199c1.414,8.1,3.343,20.701,3.471,26.615
					c0.129,5.914-3.361,25.927-3.361,25.927l-9.244-24.535L366.266,230.548z"/>
				<path style="opacity:0.4;fill:#FFFFFF;" d="M366.266,230.548c7.747,0.889,9.4,6.099,10.814,14.199
					c1.414,8.1,3.343,20.701,3.471,26.615c0.129,5.914-3.361,25.927-3.361,25.927l-9.244-24.535L366.266,230.548z"/>
			</g>
			<g id="XMLID_00000031190505600863958480000000654572433149503921_">
				<g>
					<path id="XMLID_00000085959891275099512930000015967944390932481448_" style="fill:#F0997A;" d="M335.314,204.33
						c0,0-4.852,4.934-4.532,5.498c0.32,0.564,2.212,1.444,2.212,1.444L335.314,204.33z"/>
					<path id="XMLID_00000049193558103731215020000002891499635796407984_" style="fill:#FFBDA7;" d="M346.611,192.184
						c-2.828,0.85-7.586,1.407-10.943,8.508c-0.579,1.224-0.425,3.302-0.914,4.883c-0.549,1.776-1.696,3.652-1.996,5.1
						c-1.569,7.555,0.101,10.875,1.193,12.353c0.878,1.188,6.267,2.53,9.268,2.173c3.755-0.447,12.14-2.808,16.802-7.985
						c5.484-6.092,8.004-15.071,3.737-19.535C357.754,191.399,349.417,191.34,346.611,192.184z"/>
					<path style="fill:#F0997A;" d="M334.206,223.281c1.152,0.934,4.727,1.877,7.5,1.967l1.028-2.114c0,0-2.382,0.5-4.556,0.598
						C336.017,223.83,334.228,223.288,334.206,223.281z"/>
				</g>
			</g>
			<path style="fill:#BA68C8;" d="M380.108,307.863c-0.383-14.261-2.618-20.506-7.19-32.984c0,0-1.13-5.31-1.293-11.409
				c1.07-8.886,4.334-13.305,0.931-26.213c-1.164-4.417-2.607-7.319-11.004-6.934l-1.169,0.037c-2.99,0.432-6.66,0.777-14.859,1.268
				c-8.199,0.491-11.035,1.683-13.103,2.263c0,0-2.766,1.008-5.571,16.535c-0.75,4.15-3.386,25.427-3.386,25.427l-2.501,37.805
				c0,14.043,0.608,31.795,0.608,31.795s10.897,7.937,32.69,5.683s25.847-12.384,25.847-12.384S380.491,322.124,380.108,307.863z"/>
			<g id="Arm_00000182512524849830219310000000594498104183657382_">
				<path style="fill:#FFBDA7;" d="M321.816,300.895c-0.654,1.823-0.601,3.533-0.821,4.358c-0.367,1.376-0.962,2.789-1.84,3.897
					c-0.822,1.039-1.913,1.804-2.728,2.85c-1.721,2.212-2.372,5.096-3.139,7.832c-0.277,0.99-0.594,1.971-1.473,2.537
					c-0.343,0.221-0.802,0.364-1.135,0.127c-0.275-0.196-0.357-0.575-0.417-0.917c-0.108,0.523-0.268,1.034-0.477,1.522
					c-0.178,0.415-0.404,0.83-0.765,1.085c-0.361,0.255-0.886,0.302-1.213,0.001c-0.305-0.281-0.349-0.752-0.373-1.176
					c-0.264,1.082-0.62,2.291-1.573,2.796c-0.324,0.172-0.719,0.24-1.053,0.09c-0.536-0.239-0.472-0.76-0.473-1.258
					c-0.001-0.707-0.063-1.417-0.076-2.125c-0.027-1.378,0.004-2.762,0.184-4.129c0.09-0.684,0.18-1.484,0.307-2.176
					c0.332-1.807,0.568-3.071,0.568-3.071s-0.925,2.24-1.427,4.003c-0.413,1.448-0.677,2.982-1.28,4.37
					c-0.26,0.597-1.506,1.883-1.909,0.755c-0.05-0.141-0.047-0.296-0.043-0.447c0.032-1.183,0.064-2.366,0.095-3.549
					c0.021-0.774,0.042-1.55,0.165-2.313c0.131-0.813,0.377-1.601,0.622-2.385c0.378-1.212,0.757-2.423,1.156-3.628
					c0.414-1.25,0.858-2.509,1.582-3.593c1.048-1.568,2.358-2.975,3.509-4.461c1.263-1.63,1.751-1.698,3.438-5.101
					c2.107-4.252,2.347-6.385,3.728-11.264c1.278-4.514,2.263-8.935,3.305-12.46c0,0,1.833-14.219,2.781-20.159
					c1.152-7.218,1.667-16.638,11.529-19.061c0.96,0.355,1.753,1.019,2.346,2.161c1.58,3.033,2.066,8.549,1.482,13.162
					c-1.388,10.946-2.98,21.954-4.229,27.915c-0.496,2.368-1.746,5.449-2.782,7.607C326.776,290.128,322.47,299.072,321.816,300.895
					z"/>
				<path style="fill:#F0997A;" d="M305.32,313.138l0.667-4.217c0,0-1.267,3.448-1.735,5.653c-0.186,0.877-0.278,1.728-0.322,2.437
					C304.44,315.27,305.32,313.138,305.32,313.138z"/>
				<path style="fill:#F0997A;" d="M308.824,310.692c-0.064-0.177-0.207-0.025-0.187,0.11c0.291,2.01-0.497,4.037-0.821,5.997
					c-0.169,1.02-0.392,1.894-0.479,3.138c-0.067,0.954-0.13,2.197-0.004,3.154c0.022,0.167,0.109-0.167,0.124-0.338
					c0.125-1.37,0.108-1.963,0.261-2.94c0.174-1.107,0.336-2.217,0.564-3.314C308.669,314.638,309.506,312.579,308.824,310.692z"/>
				<path style="fill:#F0997A;" d="M311.875,310.986c-0.03-0.196-0.202-0.037-0.193,0.106c0.104,1.532-0.387,2.904-0.613,3.82
					c-0.26,1.053-0.488,1.969-0.639,3.272c-0.115,0.998-0.242,2.301-0.165,3.311c0.014,0.177,0.117-0.17,0.141-0.349
					c0.195-1.432,0.208-2.056,0.411-3.074c0.23-1.154,0.449-2.312,0.732-3.453C312.031,312.684,312.021,311.939,311.875,310.986z"/>
				<g>
					<path style="fill:#BA68C8;" d="M333.962,233.428c-6.474,1.014-10.023,3.283-11.813,10.958
						c-1.79,7.675-4.211,26.775-4.211,26.775l-7.572,24.748c0,0-0.094,3.76,5.958,6.52c6.053,2.76,11.276-0.512,11.276-0.512
						s4.57-16.23,6.062-21.342c1.492-5.111,2.034-10.101,2.974-18.904c0.939-8.803,1.755-15.638,1.078-20.358
						C337.038,236.595,335.578,234.361,333.962,233.428z"/>
					<path style="opacity:0.4;fill:#FFFFFF;" d="M333.962,233.428c-6.474,1.014-10.023,3.283-11.813,10.958
						c-1.79,7.675-4.211,26.775-4.211,26.775l-7.572,24.748c0,0-0.094,3.76,5.958,6.52c6.053,2.76,11.276-0.512,11.276-0.512
						s4.57-16.23,6.062-21.342c1.492-5.111,2.034-10.101,2.974-18.904c0.939-8.803,1.755-15.638,1.078-20.358
						C337.038,236.595,335.578,234.361,333.962,233.428z"/>
				</g>
			</g>
			<g id="Veil">
				<path style="fill:#263238;" d="M343.634,209.125c-5.081-5.834-5.763-12.916-5.763-12.916s3.676-4.034,6.869-3.115
					L343.634,209.125z"/>
				<path style="fill:#E0E0E0;" d="M341.624,230.788c-1.954,0.401-3.474,0.799-4.704,1.188c-0.261-0.701-0.456-1.823,0.221-3.03
					c0.743-1.329-1.716-2.553,0.08-4.4c3.047-0.612,3.544-1.076,3.544-1.076L341.624,230.788z"/>
				<path style="fill:#F5F5F5;" d="M366.991,202.485c-1.528-5.437-5.512-10.674-13.358-11.413
					c-7.892-0.743-11.929,1.955-11.929,1.955c-1.956,4.937-2.804,12.518-1.657,23.495c0.076,0.733,0.157,1.518,0.239,2.324
					c0.926,12.071-7.171,13.806-10.033,15.428c0,0,3.698-0.866,7.628,1.094c3.158,1.574,4.192,2.4,7.516,10.18
					c2.904,6.798,9.678,12.919,18.843,8.057c9.257-4.911,7.448-13.462,6.786-22.667
					C370.363,221.734,368.519,207.922,366.991,202.485z"/>
				<path style="fill:#E0E0E0;" d="M368.179,234.293c-0.048-0.186-0.236-0.126-0.197,0.057c0.291,1.342,0.222,2.704,0.084,4.061
					c-0.107,1.053-0.239,2.106-0.483,3.136c-0.483,2.041-1.192,4.038-2.599,5.634c-2.549,2.889-6.674,4.013-10.326,2.713
					c-2.049-0.73-3.86-2.308-5.086-4.081c-0.108-0.156-0.198,0.056-0.147,0.166c1.706,3.677,6.083,5.867,10.064,5.279
					c2.013-0.298,3.891-1.2,5.42-2.536c1.761-1.54,2.75-3.578,3.19-5.85c0.258-1.336,0.332-2.725,0.412-4.082
					C368.599,237.279,368.557,235.765,368.179,234.293z"/>
				<path style="fill:#E0E0E0;" d="M363.334,245.65c-2.904,1.755-6.738,1.472-9.599-0.229c-3.31-1.968-5.287-5.316-6.511-8.869
					c-0.065-0.188-0.262-0.128-0.206,0.064c1.052,3.574,2.949,7.358,6.166,9.434c3.055,1.972,7.402,2.372,10.26-0.151
					C363.527,245.826,363.455,245.576,363.334,245.65z"/>
			</g>
		</g>
	</g>
</g>
<g id="Speech_Bubble_1">
	<g id="Speech_Bubble_00000144337330640204787440000006804323179057740970_">
		<g id="Speech_Bubble_00000003825248143014162340000010956606720056749499_">
			<path style="fill:#FFFFFF;" d="M457.258,88.851c0.009,6.583-2.553,12.574-6.722,17.054l-2.066,1.967
				c-4.351,3.709-9.982,5.964-16.132,5.973c-13.763,0.019-24.976-11.157-24.994-24.92c-0.01-6.15,2.229-11.793,5.922-16.15
				l1.969-2.069c4.461-4.189,10.446-6.767,17.029-6.776C446.026,63.912,457.239,75.088,457.258,88.851z"/>
			<path style="fill:#455A64;" d="M432.259,61.816c-14.929,0.021-27.061,12.188-27.031,27.114
				c0.019,13.394,9.815,24.522,22.606,26.653l3.051,7.839c0.521,1.339,2.416,1.336,2.933-0.004l3.028-7.849
				c12.786-2.172,22.546-13.33,22.525-26.717C459.349,73.924,447.188,61.795,432.259,61.816z M457.258,88.851
				c0.009,6.583-2.553,12.574-6.722,17.054l-2.066,1.967c-4.35,3.709-9.982,5.964-16.132,5.973
				c-13.763,0.019-24.976-11.157-24.994-24.92c-0.01-6.15,2.229-11.793,5.922-16.149l1.969-2.069
				c4.461-4.189,10.446-6.767,17.029-6.776C446.026,63.912,457.239,75.088,457.258,88.851z"/>
			<path style="fill:#FFFFFF;" d="M457.258,88.851c0.009,6.583-2.553,12.574-6.722,17.054l-2.066,1.967
				c-4.35,3.709-9.982,5.964-16.132,5.973c-13.763,0.019-24.976-11.157-24.994-24.92c-0.01-6.15,2.229-11.793,5.922-16.149
				l1.969-2.069c4.461-4.189,10.446-6.767,17.029-6.776C446.026,63.912,457.239,75.088,457.258,88.851z"/>
		</g>
		<g id="Moon">
			<path style="fill:#BA68C8;" d="M447.776,87.444c-0.841,4.302-4.279,7.832-8.865,8.577c-5.883,0.955-11.425-3.044-12.38-8.927
				c-0.955-5.883,3.039-11.424,8.922-12.379c1.124-0.182,2.237-0.186,3.305-0.026c-2.734-1.264-5.866-1.754-9.06-1.236
				c-8.524,1.383-14.314,9.417-12.931,17.94c1.384,8.528,9.416,14.314,17.94,12.931C442.878,102.998,448.535,95.567,447.776,87.444z
				 M438.412,79.753l-0.851,2.774l-2.767,0.872c-0.42,0.132-0.506,0.689-0.146,0.942l2.375,1.666l-0.026,2.901
				c-0.004,0.441,0.499,0.694,0.851,0.43l2.319-1.744l2.751,0.921c0.418,0.14,0.815-0.26,0.672-0.677l-0.942-2.744l1.727-2.332
				c0.262-0.354,0.004-0.855-0.436-0.848l-2.901,0.048l-1.684-2.363C439.098,79.241,438.542,79.331,438.412,79.753z"/>
			<path style="opacity:0.5;fill:#BA68C8;" d="M447.776,87.444c-0.841,4.302-4.279,7.832-8.865,8.577
				c-5.883,0.955-11.425-3.044-12.38-8.927c-0.955-5.883,3.039-11.424,8.922-12.379c1.124-0.182,2.237-0.186,3.305-0.026
				c-2.734-1.264-5.866-1.754-9.06-1.236c-8.524,1.383-14.314,9.417-12.931,17.94c1.384,8.528,9.416,14.314,17.94,12.931
				C442.878,102.998,448.535,95.567,447.776,87.444z M438.412,79.753l-0.851,2.774l-2.767,0.872
				c-0.42,0.132-0.506,0.689-0.146,0.942l2.375,1.666l-0.026,2.901c-0.004,0.441,0.499,0.694,0.851,0.43l2.319-1.744l2.751,0.921
				c0.418,0.14,0.815-0.26,0.672-0.677l-0.942-2.744l1.727-2.332c0.262-0.354,0.004-0.855-0.436-0.848l-2.901,0.048l-1.684-2.363
				C439.098,79.241,438.542,79.331,438.412,79.753z"/>
		</g>
	</g>
</g>
</svg>
