<svg xmlns="http://www.w3.org/2000/svg" xmlns:xlink="http://www.w3.org/1999/xlink" width="500" zoomAndPan="magnify" viewBox="0 0 375 374.999991" height="500" preserveAspectRatio="xMidYMid meet" version="1.2"><defs><clipPath id="4bff9a7d95"><path d="M 177 212 L 205 212 L 205 222.558594 L 177 222.558594 Z M 177 212 "/></clipPath><clipPath id="d7d504ca64"><path d="M 156 195 L 180 195 L 180 222.558594 L 156 222.558594 Z M 156 195 "/></clipPath><clipPath id="4db3e8fa03"><path d="M 180 150 L 203.597656 150 L 203.597656 168 L 180 168 Z M 180 150 "/></clipPath><clipPath id="65c83e377b"><path d="M 174.347656 139 L 193 139 L 193 170.765625 L 174.347656 170.765625 Z M 174.347656 139 "/></clipPath><clipPath id="34cf7185b6"><path d="M 183 131.015625 L 192 131.015625 L 192 139 L 183 139 Z M 183 131.015625 "/></clipPath><clipPath id="fae80b5856"><path d="M 123.792969 211 L 143 211 L 143 215.480469 L 123.792969 215.480469 Z M 123.792969 211 "/></clipPath></defs><g id="683f935cd8"><path style=" stroke:none;fill-rule:nonzero;fill:#558580;fill-opacity:1;" d="M 195.675781 199.082031 C 194.386719 199.386719 193.082031 199.644531 191.773438 199.851562 L 178.015625 202.015625 C 176.042969 202.324219 174.195312 200.976562 173.886719 199.007812 C 173.574219 197.035156 174.921875 195.1875 176.890625 194.878906 L 190.789062 192.691406 C 191.824219 192.53125 192.867188 192.324219 193.886719 192.082031 L 200.605469 190.492188 C 200.679688 190.476562 200.699219 190.417969 200.699219 190.414062 C 200.21875 186.164062 200.644531 181.859375 201.964844 177.628906 C 202.910156 174.601562 204.410156 171.566406 206.425781 168.601562 C 206.648438 168.269531 206.871094 167.929688 207.082031 167.585938 C 215.355469 154.1875 211.183594 136.550781 197.785156 128.277344 C 191.292969 124.269531 183.625 123.027344 176.203125 124.785156 C 168.777344 126.539062 162.480469 131.085938 158.472656 137.574219 C 150.777344 150.042969 153.851562 166.175781 165.105469 175.023438 C 166.5625 176.171875 166.957031 178.207031 165.984375 179.785156 C 164.847656 181.625 162.363281 182.054688 160.660156 180.71875 C 146.539062 169.632812 142.679688 149.410156 152.328125 133.78125 C 157.347656 125.648438 165.238281 119.957031 174.539062 117.757812 C 183.839844 115.554688 193.441406 117.109375 201.578125 122.132812 C 218.367188 132.496094 223.59375 154.589844 213.226562 171.382812 C 212.957031 171.816406 212.683594 172.242188 212.398438 172.660156 C 210.78125 175.035156 209.59375 177.433594 208.859375 179.777344 C 207.839844 183.046875 207.511719 186.355469 207.875 189.605469 C 208.289062 193.265625 205.878906 196.667969 202.265625 197.523438 L 195.675781 199.082031 "/><path style=" stroke:none;fill-rule:nonzero;fill:#558580;fill-opacity:1;" d="M 201.566406 208.390625 C 196.640625 209.554688 188.054688 211.328125 178.746094 212.09375 C 176.710938 212.261719 174.9375 210.714844 174.835938 208.671875 C 174.738281 206.71875 176.21875 205.054688 178.167969 204.894531 C 187.371094 204.132812 195.996094 202.292969 200.546875 201.199219 C 202.429688 200.746094 204.332031 201.867188 204.855469 203.730469 L 204.859375 203.738281 C 205.414062 205.707031 204.226562 207.75 202.238281 208.230469 C 202.023438 208.28125 201.800781 208.332031 201.566406 208.390625 "/><g clip-rule="nonzero" clip-path="url(#4bff9a7d95)"><path style=" stroke:none;fill-rule:nonzero;fill:#558580;fill-opacity:1;" d="M 177.214844 218.71875 C 177.234375 216.773438 178.792969 215.199219 180.734375 215.144531 C 189.585938 214.910156 196.519531 213.484375 200.289062 212.511719 C 202.097656 212.042969 203.957031 213.035156 204.585938 214.792969 L 204.589844 214.800781 C 205.304688 216.796875 204.160156 218.976562 202.105469 219.511719 C 201.621094 219.636719 201.097656 219.765625 200.53125 219.902344 C 196.171875 220.933594 189.371094 222.148438 180.925781 222.367188 C 178.878906 222.421875 177.195312 220.761719 177.214844 218.71875 "/></g><path style=" stroke:none;fill-rule:nonzero;fill:#c27d38;fill-opacity:1;" d="M 150.648438 211.296875 C 151.332031 210.496094 152.515625 209.1875 154.179688 207.609375 C 154.4375 209.835938 154.828125 212.738281 155.355469 215.472656 C 153.808594 214.664062 152.289062 213.773438 150.835938 212.777344 C 150.34375 212.441406 150.261719 211.75 150.648438 211.296875 "/><g clip-rule="nonzero" clip-path="url(#d7d504ca64)"><path style=" stroke:none;fill-rule:nonzero;fill:#558580;fill-opacity:1;" d="M 173.226562 195.339844 C 172.421875 196.429688 172.039062 197.824219 172.265625 199.261719 C 172.484375 200.648438 173.226562 201.867188 174.363281 202.691406 C 175.011719 203.164062 175.742188 203.472656 176.511719 203.609375 C 174.457031 204.417969 173.078125 206.441406 173.195312 208.753906 C 173.265625 210.1875 173.898438 211.496094 174.980469 212.445312 C 176.0625 213.390625 177.445312 213.847656 178.878906 213.730469 C 178.945312 213.726562 179.011719 213.71875 179.078125 213.714844 L 179.09375 213.820312 C 177.054688 214.527344 175.597656 216.425781 175.574219 218.699219 C 175.558594 220.023438 176.035156 221.265625 176.90625 222.242188 C 172.730469 221.589844 165.460938 220.097656 158.34375 216.921875 C 157.445312 213.03125 156.859375 208.074219 156.585938 205.449219 C 160.492188 202.125 166.082031 198.21875 173.226562 195.339844 "/></g><path style=" stroke:none;fill-rule:nonzero;fill:#c27d38;fill-opacity:1;" d="M 179.472656 132.414062 C 181.472656 131.941406 183.46875 131.78125 185.414062 131.902344 C 184.246094 131.96875 183.070312 132.132812 181.890625 132.414062 C 170.941406 135.003906 164.164062 145.980469 166.753906 156.929688 C 168.871094 165.886719 176.601562 172.046875 185.332031 172.578125 C 175.640625 173.144531 166.648438 166.703125 164.335938 156.929688 C 161.746094 145.980469 168.523438 135.003906 179.472656 132.414062 Z M 159.6875 158.003906 C 162.871094 171.453125 176.355469 179.78125 189.808594 176.597656 C 203.261719 173.417969 211.585938 159.929688 208.40625 146.476562 C 205.222656 133.023438 191.734375 124.699219 178.285156 127.882812 C 164.832031 131.0625 156.503906 144.550781 159.6875 158.003906 "/><path style=" stroke:none;fill-rule:nonzero;fill:#c27d38;fill-opacity:1;" d="M 131.210938 119.648438 C 134.769531 119.316406 144.707031 132.632812 144.707031 132.632812 C 147.578125 136.273438 131.9375 126.445312 129.515625 125.222656 C 127.097656 124 127.648438 119.984375 131.210938 119.648438 "/><path style=" stroke:none;fill-rule:nonzero;fill:#c27d38;fill-opacity:1;" d="M 145.1875 94.292969 C 149.683594 95.507812 155.730469 116.285156 155.730469 116.285156 C 157.570312 122.035156 142.972656 102.910156 140.582031 100.316406 C 138.1875 97.722656 140.691406 93.078125 145.1875 94.292969 "/><path style=" stroke:none;fill-rule:nonzero;fill:#c27d38;fill-opacity:1;" d="M 169.730469 85.878906 C 168.613281 82.046875 173.492188 78.597656 177.433594 82.097656 C 181.378906 85.59375 177.035156 109.695312 177.035156 109.695312 C 176.003906 116.449219 170.847656 89.714844 169.730469 85.878906 "/><path style=" stroke:none;fill-rule:nonzero;fill:#c27d38;fill-opacity:1;" d="M 201.710938 112.152344 C 197.980469 117.878906 204.335938 91.398438 204.902344 87.445312 C 205.46875 83.492188 211.335938 82.371094 213.484375 87.183594 C 215.628906 92 201.710938 112.152344 201.710938 112.152344 "/><path style=" stroke:none;fill-rule:nonzero;fill:#c27d38;fill-opacity:1;" d="M 216.835938 126.5 C 210.050781 127.304688 234.453125 115.226562 237.851562 113.128906 C 241.25 111.03125 245.875 114.820312 243.550781 119.550781 C 241.226562 124.28125 216.835938 126.5 216.835938 126.5 "/><path style=" stroke:none;fill-rule:nonzero;fill:#c27d38;fill-opacity:1;" d="M 245.210938 141.894531 C 248.605469 141.476562 250.847656 146.078125 247.34375 148.929688 C 243.839844 151.78125 224.066406 144.777344 224.066406 144.777344 C 218.496094 142.96875 241.8125 142.308594 245.210938 141.894531 "/><path style=" stroke:none;fill-rule:nonzero;fill:#c27d38;fill-opacity:1;" d="M 240.15625 166.503906 C 243.039062 167.300781 243.320312 171.765625 239.539062 172.90625 C 235.761719 174.046875 222.09375 161.800781 222.09375 161.800781 C 218.191406 158.488281 237.269531 165.710938 240.15625 166.503906 "/><path style=" stroke:none;fill-rule:nonzero;fill:#c27d38;fill-opacity:1;" d="M 226.332031 184.136719 C 228.082031 185.089844 227.582031 188.03125 224.957031 188.195312 C 222.332031 188.355469 215.335938 178.335938 215.335938 178.335938 C 213.3125 175.589844 224.582031 183.183594 226.332031 184.136719 "/><g clip-rule="nonzero" clip-path="url(#4db3e8fa03)"><path style=" stroke:none;fill-rule:nonzero;fill:#fdfef6;fill-opacity:1;" d="M 203.589844 150.609375 L 192.863281 150.609375 C 190.449219 158.894531 180.269531 167.148438 180.269531 167.148438 L 189.328125 161.191406 L 198.144531 167.730469 L 194.777344 157.148438 L 203.589844 150.609375 "/></g><path style=" stroke:none;fill-rule:nonzero;fill:#fdfef6;fill-opacity:1;" d="M 187.527344 142.867188 L 182.859375 143.101562 L 180.441406 147.1875 L 182.183594 147.101562 L 183.132812 148.726562 L 187.578125 146.015625 L 186.625 144.390625 L 187.527344 142.867188 "/><path style=" stroke:none;fill-rule:nonzero;fill:#fdfef6;fill-opacity:1;" d="M 188.273438 144.554688 C 188.117188 144.257812 187.898438 144.054688 187.546875 143.859375 C 187.335938 143.742188 187.21875 143.628906 187.1875 143.515625 C 187.167969 143.449219 187.179688 143.378906 187.226562 143.296875 L 187.042969 143.1875 C 186.96875 143.320312 186.949219 143.449219 186.984375 143.578125 C 187.046875 143.804688 187.277344 143.957031 187.445312 144.050781 C 187.746094 144.214844 187.929688 144.382812 188.066406 144.621094 L 188.019531 145.152344 L 188.445312 145.136719 L 188.691406 144.777344 L 188.273438 144.554688 "/><g clip-rule="nonzero" clip-path="url(#65c83e377b)"><path style=" stroke:none;fill-rule:nonzero;fill:#fdfef6;fill-opacity:1;" d="M 188.515625 139.882812 C 188.515625 139.882812 192.269531 147.097656 187.460938 150.070312 C 187.289062 150.171875 187.113281 150.261719 186.925781 150.34375 L 187.886719 154.355469 L 186.789062 156.324219 L 185.6875 154.511719 L 186.238281 150.578125 C 181.875 151.722656 174.347656 147.964844 174.347656 147.964844 C 178.753906 152.03125 185.589844 156.996094 175.085938 170.746094 C 175.085938 170.746094 190.527344 158.148438 191.882812 150.464844 C 192.972656 144.300781 188.515625 139.882812 188.515625 139.882812 Z M 184.957031 149.511719 C 186.476562 149.511719 187.707031 148.253906 187.707031 146.703125 C 187.707031 145.152344 186.476562 143.894531 184.957031 143.894531 C 183.4375 143.894531 182.207031 145.152344 182.207031 146.703125 C 182.207031 148.253906 183.4375 149.511719 184.957031 149.511719 "/></g><g clip-rule="nonzero" clip-path="url(#34cf7185b6)"><path style=" stroke:none;fill-rule:nonzero;fill:#fdfef6;fill-opacity:1;" d="M 187.773438 131.03125 L 188.667969 133.839844 L 191.554688 133.839844 L 189.21875 135.570312 L 190.113281 138.375 L 187.773438 136.644531 L 185.4375 138.375 L 186.332031 135.570312 L 183.992188 133.839844 L 186.882812 133.839844 L 187.773438 131.03125 "/></g><path style=" stroke:none;fill-rule:nonzero;fill:#fdfef6;fill-opacity:1;" d="M 195.585938 136.472656 L 195.121094 137.929688 L 193.621094 137.929688 L 194.835938 138.828125 L 194.371094 140.289062 L 195.585938 139.386719 L 196.800781 140.289062 L 196.335938 138.828125 L 197.550781 137.929688 L 196.050781 137.929688 L 195.585938 136.472656 "/><path style=" stroke:none;fill-rule:nonzero;fill:#fdfef6;fill-opacity:1;" d="M 179.964844 136.472656 L 179.5 137.929688 L 178 137.929688 L 179.214844 138.828125 L 178.75 140.289062 L 179.964844 139.386719 L 181.179688 140.289062 L 180.714844 138.828125 L 181.925781 137.929688 L 180.425781 137.929688 L 179.964844 136.472656 "/><path style=" stroke:none;fill-rule:nonzero;fill:#558580;fill-opacity:1;" d="M 181.9375 178.042969 C 181.453125 180.925781 179.671875 183.949219 176.589844 185.660156 C 173.550781 187.25 167.804688 188.691406 163.570312 196.011719 C 161.9375 198.335938 157.691406 199.476562 155.953125 199.554688 C 157.128906 199.839844 159.78125 199.242188 159.78125 199.242188 C 158.726562 199.929688 154.925781 203.40625 150.121094 205.15625 C 150.105469 205.179688 150.085938 205.207031 150.0625 205.230469 C 149.433594 206.007812 149.292969 207.40625 149.292969 207.40625 C 149.292969 207.40625 149.46875 209.128906 149.328125 211.65625 L 149.328125 211.660156 C 146.214844 211.53125 143.3125 214.484375 143.136719 214.664062 L 146.4375 209.652344 L 146.453125 209.652344 C 146.976562 209.652344 147.398438 209.28125 147.398438 208.820312 C 147.398438 208.359375 146.976562 207.992188 146.453125 207.992188 C 145.933594 207.992188 145.503906 208.363281 145.503906 208.820312 C 145.503906 209.007812 145.574219 209.179688 145.691406 209.316406 C 145.445312 209.683594 144.101562 211.6875 142.511719 214.054688 C 143.683594 210.421875 142.160156 207.960938 142.160156 207.960938 C 142.160156 207.960938 144.957031 206.585938 145.816406 206.207031 C 146.667969 205.832031 147.25 205.496094 147.925781 204.28125 C 148.0625 204.066406 148.199219 203.898438 148.328125 203.757812 C 148.214844 199.851562 148.929688 190.996094 157.171875 187.183594 C 155.558594 189.546875 155.476562 190.546875 155.367188 191.289062 C 155.367188 191.289062 157.257812 187.035156 160.265625 185.902344 C 163.273438 184.765625 167.84375 184.0625 169.148438 183.730469 C 170.300781 183.445312 178.378906 181.363281 181.175781 178.757812 C 180.726562 179.378906 180.207031 179.949219 179.640625 180.46875 C 178.90625 181.152344 178.082031 181.742188 177.234375 182.28125 C 176.386719 182.820312 175.5 183.308594 174.59375 183.757812 C 172.785156 184.660156 170.910156 185.441406 169.03125 186.21875 C 167.152344 186.996094 165.265625 187.765625 163.40625 188.632812 C 162.941406 188.851562 162.480469 189.070312 162.023438 189.300781 C 161.910156 189.359375 161.792969 189.414062 161.675781 189.476562 L 161.335938 189.667969 L 160.65625 190.046875 C 159.753906 190.570312 158.894531 191.152344 158.066406 191.78125 C 156.421875 193.046875 154.914062 194.488281 153.570312 196.070312 C 152.894531 196.859375 152.265625 197.683594 151.664062 198.527344 L 151.222656 199.171875 C 151.078125 199.386719 150.941406 199.609375 150.800781 199.828125 C 150.660156 200.050781 150.523438 200.273438 150.390625 200.496094 C 150.257812 200.726562 150.132812 200.945312 150 201.199219 C 149.996094 201.203125 149.992188 201.210938 149.988281 201.21875 C 149.816406 201.574219 149.964844 202.003906 150.320312 202.175781 C 150.675781 202.347656 151.105469 202.199219 151.28125 201.84375 L 151.285156 201.832031 C 151.382812 201.628906 151.503906 201.40625 151.621094 201.191406 C 151.742188 200.976562 151.863281 200.761719 151.992188 200.546875 C 152.121094 200.335938 152.242188 200.121094 152.375 199.914062 L 152.777344 199.28125 C 153.332031 198.457031 153.914062 197.644531 154.542969 196.867188 C 155.785156 195.308594 157.195312 193.882812 158.738281 192.621094 C 159.511719 191.996094 160.320312 191.414062 161.167969 190.886719 L 162.128906 190.316406 C 162.238281 190.253906 162.347656 190.195312 162.460938 190.136719 C 162.902344 189.894531 163.347656 189.664062 163.800781 189.4375 C 165.605469 188.527344 167.457031 187.707031 169.316406 186.875 C 171.175781 186.046875 173.039062 185.203125 174.839844 184.238281 C 175.742188 183.753906 176.628906 183.234375 177.484375 182.660156 C 178.332031 182.085938 179.152344 181.457031 179.886719 180.734375 C 180.625 180.011719 181.28125 179.207031 181.796875 178.308594 C 181.84375 178.21875 181.890625 178.132812 181.9375 178.042969 Z M 181.9375 178.042969 "/><g clip-rule="nonzero" clip-path="url(#fae80b5856)"><path style=" stroke:none;fill-rule:nonzero;fill:#558580;fill-opacity:1;" d="M 140.1875 214.753906 C 139.484375 214.746094 138.785156 214.738281 138.089844 214.710938 C 137.746094 214.695312 137.398438 214.675781 137.066406 214.640625 C 137.054688 214.636719 137.039062 214.632812 137.023438 214.632812 C 137.125 214.582031 137.226562 214.53125 137.332031 214.480469 L 138.292969 214.03125 L 138.300781 214.027344 L 138.328125 214.007812 C 138.480469 213.914062 138.632812 213.824219 138.785156 213.714844 C 138.863281 213.660156 138.945312 213.601562 139.027344 213.535156 C 139.113281 213.460938 139.203125 213.394531 139.316406 213.214844 C 139.328125 213.199219 139.347656 213.160156 139.359375 213.128906 C 139.375 213.09375 139.382812 213.070312 139.394531 213.023438 C 139.40625 212.976562 139.410156 212.925781 139.414062 212.878906 C 139.414062 212.824219 139.40625 212.761719 139.394531 212.707031 C 139.335938 212.484375 139.175781 212.355469 139.105469 212.308594 C 138.925781 212.191406 138.820312 212.171875 138.707031 212.136719 C 138.496094 212.082031 138.316406 212.054688 138.132812 212.03125 C 137.414062 211.945312 136.75 211.894531 136.039062 211.859375 C 134.621094 211.824219 133.238281 211.914062 131.859375 212.09375 C 131.171875 212.175781 130.488281 212.28125 129.8125 212.402344 C 129.132812 212.519531 128.453125 212.648438 127.78125 212.800781 C 126.433594 213.09375 125.101562 213.441406 123.789062 213.878906 L 127.886719 213.441406 L 129.925781 213.234375 C 130.605469 213.171875 131.28125 213.109375 131.957031 213.058594 C 133.308594 212.96875 134.671875 212.882812 135.992188 212.941406 C 136.636719 212.96875 137.320312 213.007812 137.949219 213.074219 C 137.902344 213.105469 137.855469 213.136719 137.808594 213.167969 L 136.90625 213.644531 C 136.746094 213.730469 136.585938 213.816406 136.425781 213.925781 C 136.34375 213.976562 136.257812 214.03125 136.175781 214.097656 C 136.085938 214.171875 136 214.230469 135.886719 214.390625 C 135.863281 214.433594 135.835938 214.457031 135.808594 214.542969 C 135.785156 214.621094 135.761719 214.683594 135.78125 214.800781 C 135.785156 214.851562 135.800781 214.902344 135.816406 214.953125 C 135.835938 214.992188 135.859375 215.023438 135.882812 215.058594 C 135.90625 215.089844 135.933594 215.121094 135.964844 215.148438 C 135.988281 215.171875 136.003906 215.179688 136.027344 215.195312 C 136.066406 215.222656 136.117188 215.253906 136.152344 215.265625 L 136.25 215.300781 C 136.320312 215.328125 136.371094 215.335938 136.425781 215.347656 C 136.640625 215.390625 136.828125 215.398438 137.015625 215.40625 C 137.386719 215.417969 137.742188 215.394531 138.097656 215.371094 C 138.808594 215.324219 139.511719 215.238281 140.214844 215.140625 C 140.914062 215.042969 141.609375 214.925781 142.304688 214.785156 C 141.597656 214.765625 140.890625 214.761719 140.1875 214.753906 Z M 140.1875 214.753906 "/></g><g style="fill:#558580;fill-opacity:1;"><g transform="translate(203.953028, 218.75019)"><path style="stroke:none" d="M 13.65625 -6.125 C 13.65625 -3.925781 13.0625 -2.289062 11.875 -1.21875 C 10.6875 -0.15625 9.140625 0.375 7.234375 0.375 C 6.160156 0.375 5.085938 0.00390625 4.015625 -0.734375 C 2.941406 -1.484375 1.957031 -2.453125 1.0625 -3.640625 L 4.734375 -6.84375 C 5.179688 -6.164062 5.601562 -5.613281 6 -5.1875 C 6.394531 -4.769531 6.804688 -4.5625 7.234375 -4.5625 C 7.617188 -4.5625 7.957031 -4.648438 8.25 -4.828125 C 8.550781 -5.015625 8.703125 -5.304688 8.703125 -5.703125 C 8.703125 -5.984375 8.519531 -6.25 8.15625 -6.5 C 7.789062 -6.757812 7.046875 -7.113281 5.921875 -7.5625 C 5.378906 -7.789062 4.847656 -8.070312 4.328125 -8.40625 C 3.804688 -8.75 3.347656 -9.144531 2.953125 -9.59375 C 2.554688 -10.039062 2.234375 -10.546875 1.984375 -11.109375 C 1.734375 -11.679688 1.609375 -12.300781 1.609375 -12.96875 C 1.609375 -13.820312 1.75 -14.640625 2.03125 -15.421875 C 2.3125 -16.210938 2.703125 -16.90625 3.203125 -17.5 C 3.710938 -18.09375 4.332031 -18.5625 5.0625 -18.90625 C 5.800781 -19.257812 6.632812 -19.4375 7.5625 -19.4375 C 8.832031 -19.4375 9.90625 -19.09375 10.78125 -18.40625 C 11.65625 -17.71875 12.457031 -16.953125 13.1875 -16.109375 L 9.515625 -12.84375 C 8.890625 -13.46875 8.472656 -13.898438 8.265625 -14.140625 C 8.054688 -14.378906 7.820312 -14.5 7.5625 -14.5 C 7.195312 -14.5 6.9375 -14.390625 6.78125 -14.171875 C 6.625 -13.960938 6.546875 -13.691406 6.546875 -13.359375 C 6.546875 -13.078125 6.625 -12.800781 6.78125 -12.53125 C 6.9375 -12.257812 7.367188 -12.023438 8.078125 -11.828125 C 9.710938 -11.378906 11.050781 -10.675781 12.09375 -9.71875 C 13.132812 -8.757812 13.65625 -7.5625 13.65625 -6.125 Z M 13.65625 -6.125 "/></g></g><g style="fill:#558580;fill-opacity:1;"><g transform="translate(216.24891, 218.75019)"><path style="stroke:none" d="M 10.390625 -19.609375 C 10.867188 -19.609375 11.269531 -19.597656 11.59375 -19.578125 C 11.925781 -19.566406 12.222656 -19.523438 12.484375 -19.453125 C 12.753906 -19.390625 13.035156 -19.300781 13.328125 -19.1875 C 13.628906 -19.070312 13.988281 -18.929688 14.40625 -18.765625 L 12.71875 -14.15625 C 12.238281 -14.320312 11.800781 -14.460938 11.40625 -14.578125 C 11.007812 -14.691406 10.671875 -14.75 10.390625 -14.75 C 10.003906 -14.75 9.640625 -14.59375 9.296875 -14.28125 C 8.960938 -13.976562 8.679688 -13.59375 8.453125 -13.125 C 8.222656 -12.65625 8.046875 -12.148438 7.921875 -11.609375 C 7.796875 -11.078125 7.734375 -10.601562 7.734375 -10.1875 L 7.734375 0 L 2.75 0 L 2.75 -12.390625 C 2.75 -12.867188 2.648438 -13.410156 2.453125 -14.015625 C 2.253906 -14.617188 2.070312 -15.203125 1.90625 -15.765625 L 1.1875 -18.125 L 5.875 -19.65625 L 6.375 -18.046875 C 7.113281 -18.523438 7.800781 -18.90625 8.4375 -19.1875 C 9.070312 -19.46875 9.722656 -19.609375 10.390625 -19.609375 Z M 10.390625 -19.609375 "/></g></g><g style="fill:#558580;fill-opacity:1;"><g transform="translate(228.629302, 218.75019)"><path style="stroke:none" d="M 1.1875 -16.3125 C 2 -16.988281 2.734375 -17.546875 3.390625 -17.984375 C 4.054688 -18.421875 4.695312 -18.769531 5.3125 -19.03125 C 5.9375 -19.300781 6.566406 -19.484375 7.203125 -19.578125 C 7.835938 -19.679688 8.550781 -19.734375 9.34375 -19.734375 C 10.238281 -19.734375 11.0625 -19.535156 11.8125 -19.140625 C 12.5625 -18.742188 13.203125 -18.191406 13.734375 -17.484375 C 14.273438 -16.785156 14.691406 -15.960938 14.984375 -15.015625 C 15.273438 -14.078125 15.421875 -13.046875 15.421875 -11.921875 L 15.421875 0 L 7.984375 0 C 7.566406 0 6.988281 -0.0546875 6.25 -0.171875 C 5.519531 -0.285156 4.796875 -0.550781 4.078125 -0.96875 C 3.359375 -1.394531 2.738281 -2.035156 2.21875 -2.890625 C 1.695312 -3.753906 1.4375 -4.929688 1.4375 -6.421875 C 1.4375 -7.722656 1.742188 -8.78125 2.359375 -9.59375 C 2.984375 -10.40625 3.703125 -11.082031 4.515625 -11.625 C 5.191406 -12.070312 5.847656 -12.335938 6.484375 -12.421875 C 7.117188 -12.503906 7.617188 -12.546875 7.984375 -12.546875 L 10.3125 -12.546875 C 10.113281 -13.453125 9.84375 -14.03125 9.5 -14.28125 C 9.164062 -14.539062 8.757812 -14.671875 8.28125 -14.671875 C 7.832031 -14.671875 7.289062 -14.503906 6.65625 -14.171875 C 6.019531 -13.847656 5.238281 -13.28125 4.3125 -12.46875 Z M 10.390625 -4.9375 L 10.390625 -7.609375 L 7.984375 -7.609375 C 7.734375 -7.609375 7.398438 -7.519531 6.984375 -7.34375 C 6.578125 -7.175781 6.375 -6.828125 6.375 -6.296875 C 6.375 -6.015625 6.429688 -5.789062 6.546875 -5.625 C 6.660156 -5.457031 6.800781 -5.320312 6.96875 -5.21875 C 7.144531 -5.125 7.320312 -5.050781 7.5 -5 C 7.6875 -4.957031 7.847656 -4.9375 7.984375 -4.9375 Z M 10.390625 -4.9375 "/></g></g><g style="fill:#558580;fill-opacity:1;"><g transform="translate(243.16562, 218.75019)"><path style="stroke:none" d=""/></g></g><g style="fill:#c27d38;fill-opacity:1;"><g transform="translate(132.20078, 256.042909)"><path style="stroke:none" d="M 2.28125 0 L 2.28125 -18.953125 L 6.578125 -18.953125 L 6.578125 0 Z M 2.28125 0 "/></g></g><g style="fill:#c27d38;fill-opacity:1;"><g transform="translate(139.455584, 256.042909)"><path style="stroke:none" d="M 2.0625 0 L 2.0625 -14.21875 L 5.125 -14.21875 L 5.546875 -12.625 C 6.128906 -13.289062 6.828125 -13.785156 7.640625 -14.109375 C 8.460938 -14.429688 9.347656 -14.59375 10.296875 -14.59375 C 12.148438 -14.59375 13.601562 -14.015625 14.65625 -12.859375 C 15.71875 -11.703125 16.25 -10.140625 16.25 -8.171875 L 16.25 0 L 12.125 0 L 12.125 -7.75 C 12.125 -8.789062 11.875 -9.601562 11.375 -10.1875 C 10.882812 -10.78125 10.195312 -11.078125 9.3125 -11.078125 C 8.375 -11.078125 7.613281 -10.75 7.03125 -10.09375 C 6.457031 -9.445312 6.171875 -8.566406 6.171875 -7.453125 L 6.171875 0 Z M 2.0625 0 "/></g></g><g style="fill:#c27d38;fill-opacity:1;"><g transform="translate(155.887499, 256.042909)"><path style="stroke:none" d="M 7.53125 0.375 C 6.226562 0.375 5.09375 0.171875 4.125 -0.234375 C 3.164062 -0.648438 2.414062 -1.226562 1.875 -1.96875 C 1.34375 -2.71875 1.078125 -3.585938 1.078125 -4.578125 L 5.125 -4.578125 C 5.132812 -3.992188 5.351562 -3.53125 5.78125 -3.1875 C 6.21875 -2.851562 6.816406 -2.6875 7.578125 -2.6875 C 8.234375 -2.6875 8.738281 -2.804688 9.09375 -3.046875 C 9.457031 -3.285156 9.640625 -3.613281 9.640625 -4.03125 C 9.640625 -4.488281 9.394531 -4.863281 8.90625 -5.15625 C 8.414062 -5.457031 7.625 -5.695312 6.53125 -5.875 C 4.71875 -6.195312 3.382812 -6.71875 2.53125 -7.4375 C 1.6875 -8.164062 1.265625 -9.117188 1.265625 -10.296875 C 1.265625 -11.679688 1.785156 -12.742188 2.828125 -13.484375 C 3.867188 -14.222656 5.34375 -14.59375 7.25 -14.59375 C 9.144531 -14.59375 10.628906 -14.1875 11.703125 -13.375 C 12.785156 -12.5625 13.367188 -11.40625 13.453125 -9.90625 L 9.53125 -9.90625 C 9.5 -10.445312 9.28125 -10.863281 8.875 -11.15625 C 8.46875 -11.457031 7.921875 -11.609375 7.234375 -11.609375 C 6.617188 -11.609375 6.132812 -11.488281 5.78125 -11.25 C 5.425781 -11.019531 5.25 -10.703125 5.25 -10.296875 C 5.25 -9.859375 5.476562 -9.515625 5.9375 -9.265625 C 6.40625 -9.023438 7.242188 -8.78125 8.453125 -8.53125 C 11.953125 -7.820312 13.703125 -6.3125 13.703125 -4 C 13.703125 -2.65625 13.15625 -1.585938 12.0625 -0.796875 C 10.96875 -0.015625 9.457031 0.375 7.53125 0.375 Z M 7.53125 0.375 "/></g></g><g style="fill:#c27d38;fill-opacity:1;"><g transform="translate(169.097951, 256.042909)"><path style="stroke:none" d="M 8.90625 0 C 7.101562 0 5.71875 -0.460938 4.75 -1.390625 C 3.78125 -2.316406 3.296875 -3.648438 3.296875 -5.390625 L 3.296875 -10.859375 L 0.546875 -10.859375 L 0.546875 -14.21875 L 1.8125 -14.21875 C 2.59375 -14.21875 3.117188 -14.34375 3.390625 -14.59375 C 3.671875 -14.84375 3.867188 -15.332031 3.984375 -16.0625 L 4.21875 -17.90625 L 7.421875 -17.90625 L 7.421875 -14.21875 L 11.3125 -14.21875 L 11.3125 -10.859375 L 7.421875 -10.859375 L 7.421875 -6.015625 C 7.421875 -4.390625 8.210938 -3.578125 9.796875 -3.578125 L 11.515625 -3.578125 L 11.515625 0 Z M 8.90625 0 "/></g></g><g style="fill:#c27d38;fill-opacity:1;"><g transform="translate(180.142712, 256.042909)"><path style="stroke:none" d="M 2.0625 0 L 2.0625 -14.21875 L 6.171875 -14.21875 L 6.171875 0 Z M 1.46875 -18.8125 C 1.46875 -19.570312 1.710938 -20.191406 2.203125 -20.671875 C 2.703125 -21.148438 3.335938 -21.390625 4.109375 -21.390625 C 4.910156 -21.390625 5.550781 -21.148438 6.03125 -20.671875 C 6.519531 -20.191406 6.765625 -19.570312 6.765625 -18.8125 C 6.765625 -18.0625 6.519531 -17.445312 6.03125 -16.96875 C 5.550781 -16.488281 4.910156 -16.25 4.109375 -16.25 C 3.335938 -16.25 2.703125 -16.488281 2.203125 -16.96875 C 1.710938 -17.445312 1.46875 -18.0625 1.46875 -18.8125 Z M 1.46875 -18.8125 "/></g></g><g style="fill:#c27d38;fill-opacity:1;"><g transform="translate(186.77488, 256.042909)"><path style="stroke:none" d="M 8.90625 0 C 7.101562 0 5.71875 -0.460938 4.75 -1.390625 C 3.78125 -2.316406 3.296875 -3.648438 3.296875 -5.390625 L 3.296875 -10.859375 L 0.546875 -10.859375 L 0.546875 -14.21875 L 1.8125 -14.21875 C 2.59375 -14.21875 3.117188 -14.34375 3.390625 -14.59375 C 3.671875 -14.84375 3.867188 -15.332031 3.984375 -16.0625 L 4.21875 -17.90625 L 7.421875 -17.90625 L 7.421875 -14.21875 L 11.3125 -14.21875 L 11.3125 -10.859375 L 7.421875 -10.859375 L 7.421875 -6.015625 C 7.421875 -4.390625 8.210938 -3.578125 9.796875 -3.578125 L 11.515625 -3.578125 L 11.515625 0 Z M 8.90625 0 "/></g></g><g style="fill:#c27d38;fill-opacity:1;"><g transform="translate(197.819641, 256.042909)"><path style="stroke:none" d="M 7.71875 0.375 C 5.875 0.375 4.421875 -0.203125 3.359375 -1.359375 C 2.304688 -2.523438 1.78125 -4.09375 1.78125 -6.0625 L 1.78125 -14.21875 L 5.90625 -14.21875 L 5.90625 -6.46875 C 5.90625 -5.425781 6.148438 -4.613281 6.640625 -4.03125 C 7.140625 -3.457031 7.820312 -3.171875 8.6875 -3.171875 C 9.625 -3.171875 10.375 -3.492188 10.9375 -4.140625 C 11.5 -4.796875 11.78125 -5.679688 11.78125 -6.796875 L 11.78125 -14.21875 L 15.890625 -14.21875 L 15.890625 0 L 12.828125 0 L 12.40625 -1.59375 C 11.84375 -0.925781 11.15625 -0.429688 10.34375 -0.109375 C 9.53125 0.210938 8.65625 0.375 7.71875 0.375 Z M 7.71875 0.375 "/></g></g><g style="fill:#c27d38;fill-opacity:1;"><g transform="translate(214.170343, 256.042909)"><path style="stroke:none" d="M 8.90625 0 C 7.101562 0 5.71875 -0.460938 4.75 -1.390625 C 3.78125 -2.316406 3.296875 -3.648438 3.296875 -5.390625 L 3.296875 -10.859375 L 0.546875 -10.859375 L 0.546875 -14.21875 L 1.8125 -14.21875 C 2.59375 -14.21875 3.117188 -14.34375 3.390625 -14.59375 C 3.671875 -14.84375 3.867188 -15.332031 3.984375 -16.0625 L 4.21875 -17.90625 L 7.421875 -17.90625 L 7.421875 -14.21875 L 11.3125 -14.21875 L 11.3125 -10.859375 L 7.421875 -10.859375 L 7.421875 -6.015625 C 7.421875 -4.390625 8.210938 -3.578125 9.796875 -3.578125 L 11.515625 -3.578125 L 11.515625 0 Z M 8.90625 0 "/></g></g><g style="fill:#c27d38;fill-opacity:1;"><g transform="translate(225.215105, 256.042909)"><path style="stroke:none" d="M 8.765625 0.375 C 7.253906 0.375 5.914062 0.0625 4.75 -0.5625 C 3.582031 -1.195312 2.675781 -2.078125 2.03125 -3.203125 C 1.382812 -4.335938 1.0625 -5.644531 1.0625 -7.125 C 1.0625 -8.601562 1.390625 -9.898438 2.046875 -11.015625 C 2.703125 -12.140625 3.613281 -13.015625 4.78125 -13.640625 C 5.945312 -14.273438 7.296875 -14.59375 8.828125 -14.59375 C 10.453125 -14.59375 11.851562 -14.226562 13.03125 -13.5 C 14.21875 -12.78125 15.125 -11.769531 15.75 -10.46875 C 16.375 -9.175781 16.640625 -7.664062 16.546875 -5.9375 L 5.140625 -5.9375 C 5.335938 -4.957031 5.769531 -4.207031 6.4375 -3.6875 C 7.113281 -3.175781 7.921875 -2.921875 8.859375 -2.921875 C 9.546875 -2.921875 10.171875 -3.050781 10.734375 -3.3125 C 11.304688 -3.570312 11.765625 -3.9375 12.109375 -4.40625 L 16.28125 -4.40625 C 15.664062 -2.914062 14.695312 -1.742188 13.375 -0.890625 C 12.0625 -0.046875 10.523438 0.375 8.765625 0.375 Z M 5.171875 -8.53125 L 12.5625 -8.53125 C 12.332031 -9.394531 11.894531 -10.070312 11.25 -10.5625 C 10.613281 -11.0625 9.816406 -11.3125 8.859375 -11.3125 C 7.953125 -11.3125 7.171875 -11.0625 6.515625 -10.5625 C 5.859375 -10.070312 5.410156 -9.394531 5.171875 -8.53125 Z M 5.171875 -8.53125 "/></g></g><g style="fill:#558580;fill-opacity:1;"><g transform="translate(125.526964, 272.77104)"><path style="stroke:none" d="M 5.546875 -8.03125 L 5.546875 -6.96875 L 1.8125 -6.96875 L 1.8125 -4.78125 L 5.125 -4.78125 L 5.125 -3.6875 L 1.8125 -3.6875 L 1.8125 -1.09375 L 5.546875 -1.09375 L 5.546875 0 L 0.640625 0 L 0.640625 -8.03125 Z M 5.546875 -8.03125 "/></g></g><g style="fill:#558580;fill-opacity:1;"><g transform="translate(134.641426, 272.77104)"><path style="stroke:none" d="M 6 -2.25 C 6 -1.914062 5.925781 -1.601562 5.78125 -1.3125 C 5.644531 -1.019531 5.445312 -0.765625 5.1875 -0.546875 C 4.664062 -0.109375 4 0.109375 3.1875 0.109375 C 2.550781 0.109375 1.972656 -0.0195312 1.453125 -0.28125 C 0.941406 -0.539062 0.566406 -0.890625 0.328125 -1.328125 L 1.34375 -1.84375 C 1.488281 -1.570312 1.722656 -1.363281 2.046875 -1.21875 C 2.378906 -1.070312 2.757812 -1 3.1875 -1 C 4.28125 -1 4.828125 -1.414062 4.828125 -2.25 C 4.828125 -2.414062 4.796875 -2.550781 4.734375 -2.65625 C 4.679688 -2.769531 4.597656 -2.878906 4.484375 -2.984375 C 4.210938 -3.203125 3.726562 -3.40625 3.03125 -3.59375 C 2.601562 -3.695312 2.238281 -3.8125 1.9375 -3.9375 C 1.644531 -4.070312 1.40625 -4.222656 1.21875 -4.390625 C 0.738281 -4.773438 0.5 -5.285156 0.5 -5.921875 C 0.5 -6.242188 0.5625 -6.539062 0.6875 -6.8125 C 0.8125 -7.09375 0.988281 -7.332031 1.21875 -7.53125 C 1.445312 -7.738281 1.71875 -7.890625 2.03125 -7.984375 C 2.34375 -8.085938 2.6875 -8.140625 3.0625 -8.140625 C 3.613281 -8.140625 4.125 -8.035156 4.59375 -7.828125 C 5.0625 -7.617188 5.414062 -7.320312 5.65625 -6.9375 L 4.734375 -6.359375 C 4.515625 -6.628906 4.257812 -6.816406 3.96875 -6.921875 C 3.6875 -7.035156 3.382812 -7.09375 3.0625 -7.09375 C 2.84375 -7.09375 2.632812 -7.050781 2.4375 -6.96875 C 2.25 -6.894531 2.09375 -6.804688 1.96875 -6.703125 C 1.863281 -6.617188 1.785156 -6.507812 1.734375 -6.375 C 1.691406 -6.238281 1.671875 -6.097656 1.671875 -5.953125 C 1.671875 -5.847656 1.679688 -5.742188 1.703125 -5.640625 C 1.734375 -5.546875 1.804688 -5.441406 1.921875 -5.328125 C 2.035156 -5.222656 2.203125 -5.117188 2.421875 -5.015625 C 2.640625 -4.910156 2.9375 -4.8125 3.3125 -4.71875 C 3.769531 -4.601562 4.148438 -4.476562 4.453125 -4.34375 C 4.765625 -4.207031 5.03125 -4.050781 5.25 -3.875 C 5.75 -3.46875 6 -2.925781 6 -2.25 Z M 6 -2.25 "/></g></g><g style="fill:#558580;fill-opacity:1;"><g transform="translate(144.106836, 272.77104)"><path style="stroke:none" d="M 7.265625 0 L 5.78125 0 L 3.25 -3.46875 L 1.84375 -3.46875 L 1.84375 0 L 0.65625 0 L 0.65625 -8.03125 L 3.921875 -8.03125 C 4.234375 -8.03125 4.53125 -7.96875 4.8125 -7.84375 C 5.101562 -7.726562 5.351562 -7.566406 5.5625 -7.359375 C 5.769531 -7.160156 5.929688 -6.921875 6.046875 -6.640625 C 6.171875 -6.367188 6.234375 -6.070312 6.234375 -5.75 C 6.234375 -5.488281 6.191406 -5.238281 6.109375 -5 C 6.023438 -4.769531 5.910156 -4.5625 5.765625 -4.375 C 5.617188 -4.1875 5.441406 -4.019531 5.234375 -3.875 C 5.023438 -3.738281 4.800781 -3.632812 4.5625 -3.5625 Z M 3.921875 -4.578125 C 4.078125 -4.578125 4.226562 -4.609375 4.375 -4.671875 C 4.519531 -4.734375 4.640625 -4.816406 4.734375 -4.921875 C 4.835938 -5.035156 4.921875 -5.164062 4.984375 -5.3125 C 5.046875 -5.457031 5.078125 -5.613281 5.078125 -5.78125 C 5.078125 -5.945312 5.046875 -6.097656 4.984375 -6.234375 C 4.921875 -6.378906 4.835938 -6.503906 4.734375 -6.609375 C 4.640625 -6.722656 4.519531 -6.8125 4.375 -6.875 C 4.226562 -6.945312 4.078125 -6.984375 3.921875 -6.984375 L 1.84375 -6.984375 L 1.84375 -4.5625 Z M 3.921875 -4.578125 "/></g></g><g style="fill:#558580;fill-opacity:1;"><g transform="translate(154.432633, 272.77104)"><path style="stroke:none" d="M 1.421875 0 L 0.125 0 L 3.46875 -8.03125 L 4.765625 -8.03125 L 8.109375 0 L 6.828125 0 L 5.78125 -2.515625 L 2.453125 -2.515625 Z M 2.90625 -3.609375 L 5.328125 -3.609375 L 4.125 -6.5 Z M 2.90625 -3.609375 "/></g></g><g style="fill:#558580;fill-opacity:1;"><g transform="translate(165.618818, 272.77104)"><path style="stroke:none" d=""/></g></g><g style="fill:#558580;fill-opacity:1;"><g transform="translate(171.472868, 272.77104)"><path style="stroke:none" d="M 2.8125 -7.0625 L 2.8125 -0.96875 L 3.40625 -0.96875 L 3.40625 0 L 1.03125 0 L 1.03125 -0.96875 L 1.625 -0.96875 L 1.625 -7.0625 L 1.03125 -7.0625 L 1.03125 -8.03125 L 3.40625 -8.03125 L 3.40625 -7.0625 Z M 2.8125 -7.0625 "/></g></g><g style="fill:#558580;fill-opacity:1;"><g transform="translate(178.821273, 272.77104)"><path style="stroke:none" d="M 7.5625 -8.03125 L 7.5625 0 L 6.359375 0 L 1.875 -6.15625 L 1.875 0 L 0.640625 0 L 0.640625 -8.03125 L 1.875 -8.03125 L 6.359375 -1.828125 L 6.359375 -8.03125 Z M 7.5625 -8.03125 "/></g></g><g style="fill:#558580;fill-opacity:1;"><g transform="translate(189.928213, 272.77104)"><path style="stroke:none" d="M 6 -2.25 C 6 -1.914062 5.925781 -1.601562 5.78125 -1.3125 C 5.644531 -1.019531 5.445312 -0.765625 5.1875 -0.546875 C 4.664062 -0.109375 4 0.109375 3.1875 0.109375 C 2.550781 0.109375 1.972656 -0.0195312 1.453125 -0.28125 C 0.941406 -0.539062 0.566406 -0.890625 0.328125 -1.328125 L 1.34375 -1.84375 C 1.488281 -1.570312 1.722656 -1.363281 2.046875 -1.21875 C 2.378906 -1.070312 2.757812 -1 3.1875 -1 C 4.28125 -1 4.828125 -1.414062 4.828125 -2.25 C 4.828125 -2.414062 4.796875 -2.550781 4.734375 -2.65625 C 4.679688 -2.769531 4.597656 -2.878906 4.484375 -2.984375 C 4.210938 -3.203125 3.726562 -3.40625 3.03125 -3.59375 C 2.601562 -3.695312 2.238281 -3.8125 1.9375 -3.9375 C 1.644531 -4.070312 1.40625 -4.222656 1.21875 -4.390625 C 0.738281 -4.773438 0.5 -5.285156 0.5 -5.921875 C 0.5 -6.242188 0.5625 -6.539062 0.6875 -6.8125 C 0.8125 -7.09375 0.988281 -7.332031 1.21875 -7.53125 C 1.445312 -7.738281 1.71875 -7.890625 2.03125 -7.984375 C 2.34375 -8.085938 2.6875 -8.140625 3.0625 -8.140625 C 3.613281 -8.140625 4.125 -8.035156 4.59375 -7.828125 C 5.0625 -7.617188 5.414062 -7.320312 5.65625 -6.9375 L 4.734375 -6.359375 C 4.515625 -6.628906 4.257812 -6.816406 3.96875 -6.921875 C 3.6875 -7.035156 3.382812 -7.09375 3.0625 -7.09375 C 2.84375 -7.09375 2.632812 -7.050781 2.4375 -6.96875 C 2.25 -6.894531 2.09375 -6.804688 1.96875 -6.703125 C 1.863281 -6.617188 1.785156 -6.507812 1.734375 -6.375 C 1.691406 -6.238281 1.671875 -6.097656 1.671875 -5.953125 C 1.671875 -5.847656 1.679688 -5.742188 1.703125 -5.640625 C 1.734375 -5.546875 1.804688 -5.441406 1.921875 -5.328125 C 2.035156 -5.222656 2.203125 -5.117188 2.421875 -5.015625 C 2.640625 -4.910156 2.9375 -4.8125 3.3125 -4.71875 C 3.769531 -4.601562 4.148438 -4.476562 4.453125 -4.34375 C 4.765625 -4.207031 5.03125 -4.050781 5.25 -3.875 C 5.75 -3.46875 6 -2.925781 6 -2.25 Z M 6 -2.25 "/></g></g><g style="fill:#558580;fill-opacity:1;"><g transform="translate(199.393623, 272.77104)"><path style="stroke:none" d="M 2.234375 -6.96875 L 0.0625 -6.96875 L 0.0625 -8.03125 L 5.59375 -8.03125 L 5.59375 -6.96875 L 3.40625 -6.96875 L 3.40625 0 L 2.234375 0 Z M 2.234375 -6.96875 "/></g></g><g style="fill:#558580;fill-opacity:1;"><g transform="translate(208.202425, 272.77104)"><path style="stroke:none" d="M 2.8125 -7.0625 L 2.8125 -0.96875 L 3.40625 -0.96875 L 3.40625 0 L 1.03125 0 L 1.03125 -0.96875 L 1.625 -0.96875 L 1.625 -7.0625 L 1.03125 -7.0625 L 1.03125 -8.03125 L 3.40625 -8.03125 L 3.40625 -7.0625 Z M 2.8125 -7.0625 "/></g></g><g style="fill:#558580;fill-opacity:1;"><g transform="translate(215.55083, 272.77104)"><path style="stroke:none" d="M 2.234375 -6.96875 L 0.0625 -6.96875 L 0.0625 -8.03125 L 5.59375 -8.03125 L 5.59375 -6.96875 L 3.40625 -6.96875 L 3.40625 0 L 2.234375 0 Z M 2.234375 -6.96875 "/></g></g><g style="fill:#558580;fill-opacity:1;"><g transform="translate(224.359632, 272.77104)"><path style="stroke:none" d="M 6.53125 -2.84375 C 6.53125 -2.4375 6.453125 -2.050781 6.296875 -1.6875 C 6.148438 -1.332031 5.941406 -1.019531 5.671875 -0.75 C 5.410156 -0.476562 5.101562 -0.265625 4.75 -0.109375 C 4.394531 0.0351562 4.015625 0.109375 3.609375 0.109375 C 3.191406 0.109375 2.804688 0.0351562 2.453125 -0.109375 C 2.097656 -0.265625 1.789062 -0.476562 1.53125 -0.75 C 1.269531 -1.019531 1.0625 -1.332031 0.90625 -1.6875 C 0.75 -2.050781 0.671875 -2.4375 0.671875 -2.84375 L 0.671875 -8.03125 L 1.84375 -8.03125 L 1.84375 -2.84375 C 1.84375 -2.601562 1.890625 -2.375 1.984375 -2.15625 C 2.078125 -1.9375 2.203125 -1.738281 2.359375 -1.5625 C 2.515625 -1.394531 2.695312 -1.257812 2.90625 -1.15625 C 3.125 -1.0625 3.359375 -1.015625 3.609375 -1.015625 C 3.847656 -1.015625 4.070312 -1.0625 4.28125 -1.15625 C 4.488281 -1.257812 4.671875 -1.394531 4.828125 -1.5625 C 4.992188 -1.738281 5.117188 -1.9375 5.203125 -2.15625 C 5.296875 -2.375 5.34375 -2.601562 5.34375 -2.84375 L 5.34375 -8.03125 L 6.53125 -8.03125 Z M 6.53125 -2.84375 "/></g></g><g style="fill:#558580;fill-opacity:1;"><g transform="translate(234.436376, 272.77104)"><path style="stroke:none" d="M 2.234375 -6.96875 L 0.0625 -6.96875 L 0.0625 -8.03125 L 5.59375 -8.03125 L 5.59375 -6.96875 L 3.40625 -6.96875 L 3.40625 0 L 2.234375 0 Z M 2.234375 -6.96875 "/></g></g><g style="fill:#558580;fill-opacity:1;"><g transform="translate(243.245178, 272.77104)"><path style="stroke:none" d="M 5.546875 -8.03125 L 5.546875 -6.96875 L 1.8125 -6.96875 L 1.8125 -4.78125 L 5.125 -4.78125 L 5.125 -3.6875 L 1.8125 -3.6875 L 1.8125 -1.09375 L 5.546875 -1.09375 L 5.546875 0 L 0.640625 0 L 0.640625 -8.03125 Z M 5.546875 -8.03125 "/></g></g></g></svg>